<?xml version="1.0" encoding="utf-8"?>
<!-- Generator: Adobe Illustrator 24.3.0, SVG Export Plug-In . SVG Version: 6.00 Build 0)  -->
<svg version="1.1" id="Layer_1" xmlns="http://www.w3.org/2000/svg" xmlns:xlink="http://www.w3.org/1999/xlink" x="0px" y="0px"
	 viewBox="0 0 24 24" style="enable-background:new 0 0 24 24;" xml:space="preserve">
<style type="text/css">
	.st0{fill-rule:evenodd;clip-rule:evenodd;fill:#007EBB;}
</style>
<g id="Icons">
	<g id="Color-" transform="translate(-702.000000, -265.000000)">
		<path id="LinkedIn" class="st0" d="M726,287.9h-5.3v-7.7c0-2-0.8-3.4-2.7-3.4c-1.4,0-2.2,0.9-2.5,1.8c-0.1,0.3-0.1,0.8-0.1,1.2v8
			h-5.3c0,0,0.1-13.6,0-14.8h5.3v2.3c0.3-1,2-2.5,4.7-2.5c3.3,0,5.9,2.1,5.9,6.7V287.9L726,287.9z M704.8,271.2L704.8,271.2
			c-1.7,0-2.8-1.1-2.8-2.6c0-1.5,1.1-2.6,2.9-2.6c1.7,0,2.8,1.1,2.8,2.6C707.7,270.1,706.6,271.2,704.8,271.2L704.8,271.2
			L704.8,271.2z M702.6,273.1h4.7v14.8h-4.7V273.1L702.6,273.1z"/>
	</g>
</g>
</svg>
