<?xml version="1.0" encoding="utf-8"?>
<!-- Generator: Adobe Illustrator 24.3.0, SVG Export Plug-In . SVG Version: 6.00 Build 0)  -->
<svg version="1.1" id="Layer_1" xmlns="http://www.w3.org/2000/svg" xmlns:xlink="http://www.w3.org/1999/xlink" x="0px" y="0px"
	 viewBox="0 0 24 24" style="enable-background:new 0 0 24 24;" xml:space="preserve">
<style type="text/css">
	.st0{fill-rule:evenodd;clip-rule:evenodd;fill:#00AAEC;}
</style>
<g id="Icons">
	<g id="Color-" transform="translate(-300.000000, -164.000000)">
		<path id="Twitter" class="st0" d="M324,168.4c-0.9,0.4-1.8,0.7-2.8,0.8c1-0.6,1.8-1.6,2.2-2.8c-1,0.6-2,1-3.1,1.2
			c-0.9-1-2.2-1.6-3.6-1.6c-2.7,0-4.9,2.3-4.9,5c0,0.4,0,0.8,0.1,1.1c-4.1-0.2-7.7-2.2-10.1-5.3c-0.4,0.7-0.7,1.6-0.7,2.5
			c0,1.8,0.9,3.3,2.2,4.2c-0.8,0-1.6-0.3-2.2-0.6v0.1c0,2.4,1.7,4.5,4,5c-0.4,0.1-0.8,0.2-1.3,0.2c-0.3,0-0.6,0-0.9-0.1
			c0.6,2,2.4,3.5,4.6,3.5c-1.7,1.4-3.8,2.2-6.1,2.2c-0.4,0-0.8,0-1.2-0.1c2.2,1.4,4.8,2.3,7.5,2.3c9.1,0,14-7.7,14-14.4
			c0-0.2,0-0.4,0-0.7C322.5,170.3,323.3,169.4,324,168.4"/>
	</g>
</g>
</svg>
