<?xml version="1.0" encoding="utf-8"?>
<!-- Generator: Adobe Illustrator 24.3.0, SVG Export Plug-In . SVG Version: 6.00 Build 0)  -->
<svg version="1.1" id="Layer_1" xmlns="http://www.w3.org/2000/svg" xmlns:xlink="http://www.w3.org/1999/xlink" x="0px" y="0px"
	 viewBox="0 0 24 24" style="enable-background:new 0 0 24 24;" xml:space="preserve">
<style type="text/css">
	.st0{fill:#E24329;}
	.st1{fill:#FC6D26;}
	.st2{fill:#FCA326;}
</style>
<g>
	<path class="st0" d="M12,23.1L12,23.1l4.4-13.6H7.6L12,23.1L12,23.1z"/>
	<path class="st1" d="M12,23.1L7.6,9.5H1.4L12,23.1L12,23.1z"/>
	<path class="st2" d="M1.4,9.5L1.4,9.5L0,13.6c-0.1,0.4,0,0.8,0.3,1L12,23.1L1.4,9.5L1.4,9.5z"/>
	<path class="st0" d="M1.4,9.5h6.2L4.9,1.3C4.8,0.8,4.2,0.8,4,1.3L1.4,9.5L1.4,9.5z"/>
	<path class="st1" d="M12,23.1l4.4-13.6h6.2L12,23.1L12,23.1z"/>
	<path class="st2" d="M22.6,9.5L22.6,9.5l1.3,4.1c0.1,0.4,0,0.8-0.3,1L12,23.1L22.6,9.5L22.6,9.5z"/>
	<path class="st0" d="M22.6,9.5h-6.2l2.7-8.2c0.1-0.4,0.7-0.4,0.9,0L22.6,9.5L22.6,9.5z"/>
</g>
</svg>
