<?xml version="1.0" encoding="utf-8"?>
<!-- Generator: Adobe Illustrator 28.2.0, SVG Export Plug-In . SVG Version: 6.00 Build 0)  -->
<svg version="1.1" id="Layer_1" xmlns="http://www.w3.org/2000/svg" xmlns:xlink="http://www.w3.org/1999/xlink" x="0px"
     y="0px"
     viewBox="0 0 600 600" style="enable-background:new 0 0 600 600;" xml:space="preserve">
<style type="text/css">
	.st0{fill:none;stroke:#C39C7D;stroke-width:2.5087;stroke-miterlimit:10;stroke-dasharray:12.9847,12.9847,12.9847,12.9847,12.9847,12.9847;}
	.st1{fill:none;stroke:#579B9B;stroke-width:2;stroke-miterlimit:10;stroke-dasharray:12.9282,12.9282,12.9282,12.9282,12.9282,12.9282;}
	.st2{fill:none;stroke:#C39C7D;stroke-width:2.5087;stroke-miterlimit:10;stroke-dasharray:12.604,12.604,12.604,12.604,12.604,12.604;}
	.st3{fill:#284C63;}
	.st4{fill:none;stroke:#284C63;stroke-width:2;stroke-miterlimit:10;}
	.st5{fill:#3D6E71;}
	.st6{fill:#010101;}
	.st7{fill:#FFFFFF;}
	.st8{fill:#6BB5B5;}
	.st9{fill-rule:evenodd;clip-rule:evenodd;fill:#6BB5B5;}
	 #inner_circle{transform-origin:center;animation: rotate 50s linear infinite forwards;}
	 #outer_circle{transform-origin:center;animation: reverserotate 100s linear infinite forwards;}
	 #remote , #telegram , #phone{animation: downup 3s linear infinite forwards;}
	 #ticket , #whatsapp , #present{animation: updown 4s linear infinite forwards;}
     @keyframes updown{33%{transform: translateY(15px);}}
	 @keyframes downup{35%{transform: translateY(-20px);}}
	 @keyframes rotate{100%{transform: rotate(360deg);}}
	 @keyframes reverserotate{100%{transform: rotate(-360deg);}}
</style>
    <g id="support">
	<path class="st4" d="M299.3,321.3c-28.8,0-57.6-0.1-86.4,0c-7.2,0-9.9-0.4-9.9-2.9c0.4-17.7,0.4-35.4,0-53c0-2.4,2.5-2.9,9.8-2.9
		c58.3,0.1,116.7,0.1,175,0c6.9,0,9.3,0.5,9.2,2.7c-0.3,17.8-0.3,35.6,0,53.4c0,2.2-2.1,2.7-9.1,2.7
		C358.4,321.3,328.9,321.3,299.3,321.3z"/>
            <g>
		<path class="st5" d="M252.5,307.5c-0.8,0-1.6,0-2.5-0.1s-1.7-0.2-2.5-0.5s-1.5-0.6-2.2-1s-1.2-1-1.7-1.8l0,0c-0.9-1.3-1.4-3-1.4-5
			c0-0.1,0-0.2,0-0.3s0-0.2,0-0.3l0,0c0-0.6,0.1-1.2,0.2-1.9s0.2-1.3,0.4-2c0.2-0.7,0.4-1.5,0.7-2.2s0.6-1.6,1-2.6l2.7,1.3
			c-0.4,0.9-0.7,1.7-0.9,2.5c-0.2,0.8-0.4,1.5-0.6,2.1c-0.1,0.7-0.2,1.3-0.3,1.8c-0.1,0.6-0.1,1.1-0.1,1.7s0.1,1.2,0.2,1.7
			c0.2,0.5,0.4,1,0.6,1.4c0.3,0.5,0.8,0.8,1.3,1.1c0.5,0.3,1.1,0.4,1.7,0.6c0.6,0.1,1.2,0.2,1.7,0.2c0.6,0,1.1,0,1.5,0
			c0.2,0,0.6,0,1.1-0.1c0.5,0,1-0.1,1.6-0.2s1.1-0.2,1.7-0.3s1.1-0.3,1.6-0.5s0.9-0.5,1.2-0.7c0.3-0.3,0.5-0.6,0.5-1
			c0-0.1-0.1-0.2-0.2-0.3c-0.2-0.1-0.4-0.3-0.6-0.4c-0.3-0.2-0.6-0.3-1-0.5s-0.8-0.3-1.2-0.5c-0.6-0.2-1.2-0.4-1.8-0.5
			s-1.2-0.2-1.8-0.3l0.5-3.3h10.3c0.2,0,0.4,0,0.7,0.1s0.4,0.2,0.5,0.4c0.2,0.2,0.3,0.3,0.4,0.5s0.1,0.4,0.1,0.7s0,0.5-0.1,0.7
			s-0.2,0.4-0.4,0.5c-0.2,0.2-0.3,0.3-0.5,0.4s-0.4,0.1-0.7,0.1H262c0.4,0.4,0.6,0.9,0.7,1.3s0.2,0.8,0.2,1.1c0,0.8-0.2,1.5-0.6,2.1
			s-0.8,1.2-1.4,1.6s-1.2,0.9-1.9,1.2c-0.7,0.3-1.5,0.6-2.2,0.8s-1.5,0.4-2.3,0.4C253.8,307.4,253.1,307.5,252.5,307.5z"/>
                <path class="st5" d="M262.5,297.1c0-0.2,0-0.5,0.1-0.7s0.2-0.4,0.4-0.5c0.2-0.2,0.3-0.3,0.5-0.4s0.4-0.1,0.7-0.1h1.4h0.6
			c0.4,0,0.7,0,1.1,0s0.7-0.1,1-0.2s0.6-0.2,0.8-0.4c0.2-0.2,0.4-0.4,0.6-0.7c0.1-0.2,0.1-0.5,0.1-0.9c0-0.2,0-0.6-0.1-1
			s-0.2-0.9-0.4-1.4c-0.2-0.5-0.3-1-0.6-1.6s-0.4-1-0.7-1.5l3.1-1.5c0.2,0.5,0.4,1,0.7,1.6s0.4,1.2,0.6,1.7c0.2,0.6,0.3,1.2,0.4,1.8
			c0.1,0.6,0.2,1.2,0.2,1.8c0,0.9-0.1,1.6-0.4,2.3c-0.3,0.8-0.8,1.4-1.4,1.9s-1.3,0.9-2.2,1.1c-0.5,0.1-1,0.2-1.5,0.3
			c-0.5,0-0.9,0-1.3,0h-1.8h-0.1c-0.2,0-0.5,0-0.7-0.1s-0.4-0.2-0.5-0.4c-0.2-0.2-0.3-0.3-0.4-0.5
			C262.5,297.6,262.5,297.4,262.5,297.1z M268.7,284.4l-2.6-2.6l2.5-2.5l2.6,2.6L268.7,284.4z"/>
                <path class="st5" d="M282.2,298.8c-1,0-1.9-0.1-2.7-0.4c-0.7-0.3-1.4-0.6-1.9-1.2c-0.3-0.3-0.6-0.7-0.7-1
			c-0.2-0.4-0.3-0.7-0.4-1.1s-0.1-0.7-0.1-1s0-0.6,0-0.8c0-0.3,0-0.8,0-1.4c0-0.7,0-1.4,0-2.4c0-0.6,0-1.2,0-1.8c0-0.6,0-1.3,0-1.9
			c0-0.7,0-1.3-0.1-2c0-0.7-0.1-1.3-0.1-1.9s-0.1-1.2-0.1-1.7c-0.1-0.5-0.1-1-0.2-1.4l3.3-1c0.1,0.5,0.2,1.1,0.3,1.9
			c0.1,0.7,0.1,1.5,0.2,2.3s0.1,1.7,0.1,2.5c0,0.9,0,1.7,0,2.4c0,0.5,0,1,0,1.5s0,1,0,1.4c0,0.3,0,0.7,0,1s0,0.6,0,0.9s0,0.5,0,0.8
			s0,0.5,0,0.8s0,0.7,0,1s0.1,0.5,0.3,0.7c0.3,0.3,1,0.5,2,0.5h0.1c0.2,0,0.5,0,0.7,0.1s0.4,0.2,0.5,0.4c0.2,0.2,0.3,0.3,0.4,0.5
			s0.1,0.4,0.1,0.7c0,0.2,0,0.5-0.1,0.7s-0.2,0.4-0.4,0.5c-0.2,0.2-0.3,0.3-0.5,0.4C282.7,298.8,282.5,298.8,282.2,298.8z"/>
                <path class="st5" d="M280.5,297.1c0-0.2,0-0.5,0.1-0.7s0.2-0.4,0.4-0.5c0.2-0.2,0.3-0.3,0.5-0.4s0.4-0.1,0.7-0.1h0.2
			c1.4,0,2.4-0.2,3.1-0.7s1-1.2,1-2.1c0-0.2,0-0.5-0.1-0.7c0-0.2-0.1-0.4-0.2-0.7c-0.1-0.2-0.1-0.5-0.2-0.8s-0.2-0.6-0.3-1l3.3-0.9
			c0.2,0.6,0.3,1.3,0.4,2s0.2,1.4,0.2,2.2c0,0.3,0,0.6,0.1,0.9s0.1,0.6,0.3,0.9s0.3,0.5,0.6,0.7c0.2,0.2,0.5,0.3,0.9,0.3
			c0.2,0,0.5,0,0.7,0.1s0.4,0.2,0.5,0.4s0.3,0.3,0.4,0.5s0.1,0.4,0.1,0.7s0,0.5-0.1,0.7s-0.2,0.4-0.4,0.5c-0.2,0.2-0.3,0.3-0.5,0.4
			s-0.4,0.1-0.6,0.1c-0.9,0-1.6-0.1-2.2-0.4s-1.1-0.6-1.5-1.1c-1.2,1-3,1.5-5.5,1.5h-0.2c-0.2,0-0.5,0-0.7-0.1s-0.4-0.2-0.5-0.4
			c-0.2-0.2-0.3-0.3-0.4-0.5C280.6,297.6,280.5,297.4,280.5,297.1z M287.4,305.7l-2.6-2.6l2.5-2.5l2.6,2.6L287.4,305.7z"/>
                <path class="st5" d="M290,297.1c0-0.2,0-0.5,0.1-0.7s0.2-0.4,0.4-0.5c0.2-0.2,0.3-0.3,0.5-0.4s0.4-0.1,0.7-0.1h1
			c0.7,0,1.4,0,2-0.1s1.2-0.2,1.7-0.4c0.5-0.2,0.9-0.5,1.2-0.9s0.5-0.9,0.5-1.5c0-0.2,0-0.5,0-0.7s-0.1-0.5-0.1-0.7
			s-0.1-0.5-0.2-0.9c-0.1-0.3-0.2-0.7-0.3-1.1l3.3-0.9c0.1,0.4,0.2,0.8,0.3,1.2c0.1,0.4,0.1,0.7,0.2,1c0,0.3,0.1,0.7,0.1,1
			s0.1,0.7,0.1,1.1c0,0.3,0.1,0.6,0.1,1c0.1,0.3,0.1,0.6,0.3,0.9c0.1,0.3,0.3,0.5,0.5,0.7s0.5,0.3,0.9,0.3c0.2,0,0.5,0,0.7,0.1
			s0.4,0.2,0.5,0.4s0.3,0.3,0.4,0.5s0.1,0.4,0.1,0.7s0,0.5-0.1,0.7s-0.2,0.4-0.4,0.5c-0.2,0.2-0.3,0.3-0.5,0.4s-0.4,0.1-0.6,0.1
			c-0.9,0-1.6-0.1-2.2-0.4s-1.1-0.7-1.5-1.1c-0.4,0.3-0.8,0.5-1.3,0.7s-1.1,0.4-1.7,0.5s-1.2,0.2-1.8,0.3c-0.6,0.1-1.3,0.1-1.9,0.1
			h-1c-0.2,0-0.5,0-0.7-0.1s-0.4-0.2-0.5-0.4c-0.2-0.2-0.3-0.3-0.4-0.5C290,297.6,290,297.4,290,297.1z M294,305.7l-2.3-2.3l2.3-2.3
			l2.3,2.3L294,305.7z M299,305.7l-2.3-2.3l2.3-2.3l2.3,2.3L299,305.7z"/>
                <path class="st5" d="M301.4,297.1c0-0.2,0-0.5,0.1-0.7s0.2-0.4,0.4-0.5c0.2-0.2,0.3-0.3,0.5-0.4s0.4-0.1,0.7-0.1h1
			c0.7,0,1.4,0,2-0.1s1.2-0.2,1.7-0.4c0.5-0.2,0.9-0.5,1.2-0.9s0.5-0.9,0.5-1.5c0-0.2,0-0.5,0-0.7s-0.1-0.5-0.1-0.7
			s-0.1-0.5-0.2-0.9c-0.1-0.3-0.2-0.7-0.3-1.1l3.3-0.9c0.1,0.4,0.2,0.8,0.3,1.2c0.1,0.4,0.1,0.7,0.2,1c0,0.3,0.1,0.7,0.1,1
			s0.1,0.7,0.1,1.1c0,0.3,0.1,0.6,0.1,1c0.1,0.3,0.1,0.6,0.3,0.9c0.1,0.3,0.3,0.5,0.5,0.7s0.5,0.3,0.9,0.3c0.2,0,0.5,0,0.7,0.1
			s0.4,0.2,0.5,0.4s0.3,0.3,0.4,0.5s0.1,0.4,0.1,0.7s0,0.5-0.1,0.7s-0.2,0.4-0.4,0.5c-0.2,0.2-0.3,0.3-0.5,0.4s-0.4,0.1-0.6,0.1
			c-0.9,0-1.6-0.1-2.2-0.4s-1.1-0.7-1.5-1.1c-0.4,0.3-0.8,0.5-1.3,0.7s-1.1,0.4-1.7,0.5s-1.2,0.2-1.8,0.3c-0.6,0.1-1.3,0.1-1.9,0.1
			h-1c-0.2,0-0.5,0-0.7-0.1s-0.4-0.2-0.5-0.4c-0.2-0.2-0.3-0.3-0.4-0.5C301.4,297.6,301.4,297.4,301.4,297.1z M306.6,286.2l-2.3-2.3
			l2.3-2.3l2.3,2.3L306.6,286.2z M311.7,286.2l-2.3-2.3l2.3-2.3l2.3,2.3L311.7,286.2z"/>
                <path class="st5" d="M313,297.1c0-0.2,0-0.4,0.1-0.6s0.2-0.4,0.4-0.5c0.2-0.2,0.4-0.3,0.6-0.4s0.5-0.1,0.7-0.2
			c0.5,0,1-0.1,1.5-0.3s0.9-0.5,1.2-1s0.7-1.1,1.1-1.9c0.3-0.8,0.6-1.9,0.9-3.2l3.3,0.9c-0.1,0.4-0.2,0.7-0.3,1
			c-0.1,0.3-0.2,0.6-0.3,0.9c-0.1,0.3-0.1,0.6-0.2,0.9s-0.1,0.7-0.1,1.1c0,0.2,0,0.4,0.1,0.6c0,0.2,0.1,0.4,0.2,0.5
			c0.1,0.2,0.2,0.3,0.3,0.4c0.1,0.1,0.3,0.1,0.5,0.1c0.3,0,0.6-0.1,0.9-0.4c0.3-0.2,0.6-0.5,0.8-0.9s0.5-0.8,0.7-1.2
			c0.2-0.5,0.4-0.9,0.6-1.4s0.3-0.9,0.4-1.4s0.2-0.9,0.3-1.2l3.1,0.6c-0.1,0.5-0.2,1-0.3,1.5c-0.1,0.4-0.1,0.9-0.1,1.4
			c0,0.3,0,0.7,0,1c0,0.4,0.1,0.7,0.2,1s0.3,0.5,0.5,0.7s0.5,0.3,0.8,0.3c0.4,0,0.7-0.1,0.9-0.4c0.2-0.3,0.4-0.7,0.5-1.1
			c0.1-0.5,0.2-1,0.2-1.5c0-0.6,0.1-1.1,0.1-1.6c0-0.2,0-0.3,0-0.4s0-0.2,0-0.3s0-0.2,0-0.3c0-0.1,0-0.3,0-0.5l3.4-0.3
			c0,0.3,0.1,0.6,0.1,0.9s0.1,0.6,0.1,0.9s0.1,0.6,0.1,0.9s0.1,0.7,0.1,1.1c0.1,0.5,0.2,0.9,0.4,1.2c0.2,0.3,0.4,0.6,0.7,0.9
			s0.6,0.4,0.9,0.5s0.6,0.2,0.9,0.2h0.2c0.3,0,0.5,0,0.7,0.1s0.4,0.2,0.6,0.4c0.2,0.2,0.3,0.3,0.4,0.5s0.1,0.4,0.1,0.7
			s0,0.5-0.1,0.7s-0.2,0.4-0.4,0.5c-0.2,0.2-0.4,0.3-0.6,0.4s-0.5,0.1-0.8,0.1c-0.4,0-0.9,0-1.3-0.1s-0.8-0.2-1.2-0.4
			c-0.4-0.2-0.7-0.4-1.1-0.7c-0.3-0.3-0.6-0.6-0.9-1c-0.1,0.2-0.2,0.3-0.3,0.4s-0.2,0.2-0.3,0.4c-0.4,0.5-0.9,0.9-1.5,1.1
			s-1.2,0.4-1.9,0.4c-0.8,0-1.6-0.2-2.3-0.6c-0.7-0.4-1.2-0.9-1.6-1.6c-0.3,0.3-0.5,0.6-0.8,0.9s-0.6,0.5-1,0.7
			c-0.3,0.2-0.7,0.4-1.1,0.5s-0.8,0.2-1.2,0.2c-0.4,0-0.8-0.1-1.2-0.2c-0.4-0.1-0.7-0.3-1-0.4c-0.3-0.2-0.6-0.4-0.9-0.7
			c-0.3-0.3-0.5-0.6-0.6-0.9c-0.4,0.8-1,1.3-1.7,1.7c-0.7,0.3-1.6,0.5-2.7,0.5c-0.3,0-0.5,0-0.8-0.1c-0.2-0.1-0.4-0.2-0.6-0.4
			s-0.3-0.3-0.4-0.5S313,297.4,313,297.1z M325.6,285.7l-2.3-2.3l2.3-2.3l2.3,2.3L325.6,285.7z M328.1,277.5l2.1,2.1l-2.1,2.1
			l-2.1-2.1L328.1,277.5z M330.6,285.7l-2.3-2.3l2.3-2.3l2.3,2.3L330.6,285.7z"/>
                <path class="st5" d="M338,297.1c0-0.2,0-0.5,0.1-0.7s0.2-0.4,0.4-0.5c0.2-0.2,0.3-0.3,0.5-0.4s0.4-0.1,0.7-0.1h1.5h0.6
			c0.4,0,0.9,0,1.4,0s1-0.1,1.4-0.2s0.9-0.2,1.2-0.4s0.6-0.4,0.8-0.6c0.1-0.2,0.2-0.5,0.2-0.8s0-0.7-0.1-1.1s-0.2-0.8-0.4-1.2
			c-0.2-0.4-0.3-0.8-0.5-1.2c-0.2-0.4-0.4-0.8-0.5-1.1c-0.2-0.4-0.3-0.7-0.4-0.9l3.1-1.5c0.2,0.4,0.5,0.9,0.7,1.5s0.4,1.2,0.6,1.9
			c0.2,0.6,0.3,1.3,0.4,1.9s0.2,1.2,0.2,1.6c0,0.9-0.1,1.6-0.4,2.3c-0.3,0.8-0.8,1.4-1.4,1.9s-1.3,0.9-2.2,1.1
			c-0.3,0.1-0.6,0.1-1,0.2c-0.4,0-0.8,0.1-1.2,0.1c-0.4,0-0.8,0-1.1,0c-0.4,0-0.6,0-0.8,0h-1.9h-0.1c-0.2,0-0.5,0-0.7-0.1
			s-0.4-0.2-0.5-0.4c-0.2-0.2-0.3-0.3-0.4-0.5C338.1,297.6,338,297.4,338,297.1z M339.9,303.2l2.3-2.3l2.3,2.3l-2.3,2.3L339.9,303.2
			z M346.8,307l-2.1,2.1l-2.1-2.1l2.1-2.1L346.8,307z M344.9,303.2l2.3-2.3l2.3,2.3l-2.3,2.3L344.9,303.2z"/>
	</g>
        <path class="st6" d="M360.9,309.7c0-1.7,1.6-2.7,3-2c1.7,0.8,3.3,1.7,4.9,2.5c5,2.6,10.1,5.2,15.1,7.9c1.3,0.7,1.7,1.6,1.4,2.7
		c-0.2,0.8-0.8,1.2-1.6,1.5c-1.5,0.5-2.9,1.1-4.4,1.6c-0.5,0.2-0.6,0.3-0.2,0.8c1.9,2.4,3.8,4.9,5.7,7.3c1,1.3,0.9,2.4-0.4,3.5
		c-0.6,0.5-1.3,1-1.9,1.5c-1.2,0.8-2.3,0.7-3.2-0.4c-1.9-2.5-3.8-4.9-5.7-7.4c-0.3-0.5-0.5-0.5-0.9,0c-0.9,1.3-1.8,2.6-2.7,3.9
		c-0.5,0.8-1.2,1.2-2.2,1.1c-1.1-0.2-1.6-0.9-1.8-1.9c-1.7-7.3-3.4-14.6-5-21.9C360.9,310,360.9,309.8,360.9,309.7z"/>
</g>

    <g id="inner_circle">
	<circle class="st0" cx="300" cy="300" r="136.4"/>
</g>
    <g id="middle_circle">
	<circle class="st1" cx="300" cy="300" r="185.2"/>
</g>
    <g id="outer_circle">
	<circle class="st2" cx="300" cy="300" r="228.7"/>
</g>
    <g id="boxes">
	<path class="st3" d="M126.7,377.7c-10.6,0-21.2,0-31.8,0c-2.7,0-3.7-0.2-3.6-1.4c0.1-8.9,0.1-17.9,0-26.8c0-1.2,0.9-1.5,3.6-1.5
		c21.5,0,42.9,0,64.4,0c2.5,0,3.4,0.2,3.4,1.4c-0.1,9-0.1,18,0,27c0,1.1-0.8,1.4-3.4,1.4C148.4,377.7,137.5,377.7,126.7,377.7z"/>
        <path class="st3" d="M533.9,301.1c-5.8,0-11.6,0-17.5,0c-1.5,0-2-0.2-2-1.2c0.1-7.1,0.1-14.2,0-21.3c0-1,0.5-1.2,2-1.2
		c11.8,0,23.6,0,35.4,0c1.4,0,1.9,0.2,1.9,1.1c-0.1,7.2-0.1,14.3,0,21.5c0,0.9-0.4,1.1-1.8,1.1C545.9,301,539.9,301.1,533.9,301.1z"
        />
        <path class="st3" d="M190.2,181.3c-8,0-16,0-24,0c-2,0-2.8-0.2-2.7-1.1c0.1-6.9,0.1-13.7,0-20.6c0-0.9,0.7-1.1,2.7-1.1
		c16.2,0,32.4,0,48.6,0c1.9,0,2.6,0.2,2.6,1c-0.1,6.9-0.1,13.8,0,20.8c0,0.9-0.6,1.1-2.5,1.1C206.7,181.3,198.4,181.3,190.2,181.3z"
        />
</g>
    <g id="present">
	<path class="st3" d="M78.1,265.9c-22.4,0-44.7-0.1-67.1,0c-5.6,0-7.7-0.4-7.7-2.5c0.3-15.5,0.3-30.9,0-46.4c0-2.1,1.9-2.5,7.6-2.5
		c45.3,0.1,90.6,0.1,135.9,0c5.3,0,7.2,0.4,7.2,2.3c-0.2,15.6-0.2,31.1,0,46.7c0,1.9-1.7,2.4-7.1,2.4
		C124,265.9,101.1,265.9,78.1,265.9z"/>
        <g>
		<g>
			<path class="st7" d="M32.5,234.8c0.5-0.1,0.9-0.1,1.4-0.1c0.4,0,0.8,0.1,1.1,0.2c0.3,0.1,0.6,0.2,0.8,0.2
				c0.2,0.1,0.3,0.1,0.3,0.1l-0.9,1.9c-0.3-0.1-0.5-0.2-0.7-0.2s-0.5-0.1-0.7-0.1c-0.3,0-0.6,0-0.9,0.1c-0.3,0-0.6,0.1-0.9,0.3
				c-0.3,0.2-0.6,0.3-0.9,0.6c-0.3,0.2-0.6,0.5-0.8,0.8c-0.2,0.3-0.4,0.6-0.6,0.9c-0.2,0.3-0.3,0.7-0.3,1c-0.1,0.3,0,0.6,0.1,0.9
				c0.1,0.3,0.2,0.5,0.5,0.6c0.2,0.2,0.5,0.3,0.8,0.4c0.3,0.1,0.6,0.2,1,0.3c0.4,0.1,0.7,0.2,1,0.3s0.7,0.2,1,0.4
				c0.3,0.1,0.6,0.3,0.8,0.6c0.2,0.2,0.4,0.5,0.5,0.9s0.1,0.8,0,1.3c-0.1,0.7-0.4,1.3-0.9,1.8c-0.5,0.6-1.1,1-1.9,1.4
				c-0.8,0.4-1.6,0.7-2.6,0.9s-2,0.3-3.1,0.3c-1.3,0-2.4-0.2-3.4-0.6c-1-0.4-1.8-0.9-2.4-1.6c-0.6-0.6-1-1.4-1.2-2.2
				s-0.3-1.8-0.2-2.8c0.1-0.4,0.1-0.9,0.2-1.4s0.2-0.9,0.3-1.4c0.1-0.5,0.2-0.9,0.3-1.3c0.1-0.4,0.2-0.8,0.3-1.1
				c0.1-0.3,0.2-0.6,0.2-0.8s0.1-0.3,0.1-0.3l2,0.7c-0.3,1-0.6,1.9-0.9,2.9c-0.3,0.9-0.5,1.9-0.6,2.9c0,0.2-0.1,0.5-0.1,0.8
				s0,0.6,0.1,0.9s0.1,0.6,0.3,0.9c0.1,0.3,0.3,0.6,0.5,0.8c0.4,0.5,1,0.9,1.7,1.1c0.7,0.2,1.6,0.4,2.6,0.4s1.8-0.1,2.6-0.2
				c0.8-0.2,1.4-0.4,2-0.6c0.5-0.3,1-0.5,1.3-0.9c0.3-0.3,0.5-0.7,0.5-1c0-0.2,0-0.3-0.2-0.4c-0.1-0.1-0.3-0.2-0.5-0.3
				s-0.5-0.2-0.8-0.2c-0.3-0.1-0.6-0.1-0.9-0.2c-0.3-0.1-0.6-0.2-1-0.3c-0.3-0.1-0.6-0.3-0.9-0.5s-0.5-0.4-0.7-0.7s-0.3-0.6-0.4-1
				c-0.1-0.5-0.1-1.1-0.1-1.6c0.1-0.5,0.2-1.1,0.4-1.6c0.2-0.5,0.4-1,0.8-1.4c0.3-0.4,0.7-0.8,1.1-1.2s0.9-0.7,1.3-0.9
				C31.4,235.1,32,234.9,32.5,234.8z"/>
            <path class="st7" d="M41.5,237.2c0.2,0.6,0.4,1.3,0.5,1.9c0.1,0.3,0.1,0.5,0.2,0.8c0.1,0.3,0.1,0.6,0.2,0.9s0.1,0.6,0.2,0.8
				c0,0.3,0.1,0.5,0.1,0.8c0,0.1,0,0.2,0,0.3s0,0.2,0,0.3c0,0.6-0.1,1.2-0.3,1.7c-0.2,0.6-0.4,1.1-0.7,1.6s-0.7,1-1.1,1.5
				s-0.9,0.9-1.4,1.3c-0.5,0.4-1,0.8-1.6,1.2s-1.1,0.7-1.7,1l-0.9-1.8c0.7-0.4,1.4-0.8,2.1-1.2c0.7-0.5,1.3-1,1.8-1.5
				c0.5-0.6,1-1.1,1.3-1.8c0.3-0.6,0.5-1.3,0.5-1.9c0,0,0-0.1,0-0.2c0-0.1,0-0.2,0-0.2l0,0c0-0.2-0.1-0.4-0.1-0.7s-0.1-0.5-0.2-0.8
				c-0.1-0.3-0.1-0.5-0.2-0.8c-0.1-0.3-0.1-0.5-0.2-0.8c-0.2-0.6-0.3-1.1-0.5-1.7L41.5,237.2z"/>
            <path class="st7" d="M44.8,249c1.1-0.2,2-0.5,2.8-0.9s1.5-0.8,2.1-1.3s1.1-1,1.4-1.5c0.3-0.5,0.6-1,0.6-1.6c-0.3,0-0.6,0-1,0
				s-0.8,0-1.2-0.1c-1.5-0.1-2.6-0.6-3.3-1.5c-0.3-0.4-0.5-0.9-0.6-1.4s-0.1-1,0-1.6c0.1-0.5,0.2-1.1,0.4-1.6s0.5-0.9,0.7-1.3
				c0.3-0.4,0.7-0.8,1.1-1c0.4-0.2,0.8-0.3,1.3-0.3c1,0,1.9,0.4,2.7,1.3c0.3,0.3,0.5,0.7,0.8,1.1c0.2,0.4,0.4,0.8,0.6,1.3
				c0.2,0.5,0.3,0.9,0.4,1.4c0.1,0.5,0.1,1,0.2,1.5h0.8c0.1,0,0.3,0,0.4,0.1c0.1,0.1,0.2,0.1,0.3,0.2c0.1,0.1,0.2,0.2,0.2,0.3
				c0.1,0.1,0.1,0.3,0.1,0.4c0,0.1,0,0.3-0.1,0.4c-0.1,0.1-0.1,0.2-0.2,0.3c-0.1,0.1-0.2,0.2-0.3,0.2c-0.1,0.1-0.3,0.1-0.4,0.1h-0.9
				c-0.2,1-0.6,1.9-1.1,2.7s-1.2,1.5-1.9,2.1c-0.8,0.6-1.6,1.1-2.5,1.5s-1.9,0.7-2.9,0.8L44.8,249z M49.3,237.2
				c-0.2,0-0.4,0.1-0.6,0.2c-0.2,0.2-0.3,0.3-0.5,0.6c-0.1,0.2-0.3,0.5-0.4,0.8c-0.1,0.3-0.2,0.6-0.2,0.9c0,0.3,0,0.6,0,0.8
				s0.1,0.4,0.2,0.6c0.1,0.1,0.2,0.2,0.4,0.3s0.3,0.2,0.5,0.2c0.2,0.1,0.3,0.1,0.5,0.1s0.3,0,0.4,0c0.4,0,0.8,0,1.2,0s0.7,0,0.9,0
				c0-0.4-0.1-0.8-0.2-1.2c-0.1-0.4-0.2-0.8-0.3-1.1s-0.3-0.6-0.4-0.9c-0.2-0.3-0.3-0.5-0.5-0.7c-0.1-0.1-0.1-0.1-0.2-0.2
				c-0.1-0.1-0.2-0.1-0.3-0.2c-0.1-0.1-0.2-0.1-0.3-0.2C49.5,237.2,49.4,237.2,49.3,237.2z"/>
            <path class="st7" d="M53.7,242.8c0-0.3,0.1-0.5,0.3-0.7s0.4-0.3,0.7-0.3h0.1c0.8,0,1.4-0.1,1.6-0.2c0.3-0.2,0.6-0.4,0.8-0.7
				s0.4-0.7,0.6-1.1c0.1-0.5,0.3-1,0.4-1.6c0.1-0.3,0.1-0.5,0.2-0.8c0.1-0.3,0.1-0.5,0.2-0.8l1.9,0.6c-0.1,0.1-0.1,0.3-0.1,0.4
				c0,0.1-0.1,0.3-0.1,0.4l0,0c0,0.1-0.1,0.3-0.1,0.6s0,0.5,0,0.8s0.1,0.6,0.1,0.9c0.1,0.3,0.2,0.6,0.4,0.8l0.1,0.1
				c0.1-0.2,0.2-0.5,0.4-0.8s0.4-0.6,0.6-1s0.5-0.8,0.8-1.2s0.7-0.8,1.1-1.2c0.6-0.6,1.3-1.1,2-1.4c0.7-0.4,1.4-0.6,2.2-0.8
				c0.9-0.1,1.7-0.1,2.4,0.1s1.4,0.6,1.9,1.2c0.4,0.4,0.7,0.8,0.9,1.3s0.3,1,0.2,1.5c-0.1,1.1-0.5,2-1.2,2.8h2.4
				c0.3,0,0.5,0.1,0.7,0.3s0.3,0.4,0.3,0.7s-0.1,0.5-0.3,0.7s-0.4,0.3-0.7,0.3h-2.6c-0.8,0-1.4,0-1.8-0.1c-0.5,0-0.8-0.1-1.1-0.3
				c-0.7,0.2-1.4,0.3-2.2,0.4c-0.7,0.1-1.4,0.1-2.1,0.1c-0.6,0-1.1,0-1.6-0.1c-0.5,0-0.8-0.1-1-0.1c-0.3,0-0.6-0.1-0.8-0.1
				c-0.3-0.1-0.5-0.1-0.7-0.2c-0.3-0.1-0.6-0.3-0.8-0.5s-0.5-0.4-0.6-0.7c-0.1-0.1-0.2-0.2-0.2-0.3c-0.4,0.6-1,1-1.6,1.3
				c-0.7,0.3-1.5,0.5-2.6,0.5c-0.3,0-0.5-0.1-0.7-0.3S53.7,243.1,53.7,242.8z M62.7,241.9c0.4,0,0.8,0.1,1.2,0.1s0.9,0,1.4,0
				s0.9-0.1,1.4-0.1s0.9-0.1,1.4-0.2c0.4-0.1,0.9-0.2,1.3-0.4s0.7-0.4,1-0.6c0.6-0.5,0.9-1,0.9-1.7c0-0.1,0-0.3,0-0.4
				c0-0.1-0.1-0.3-0.1-0.4c-0.1-0.1-0.1-0.2-0.2-0.3s-0.1-0.2-0.2-0.2c-0.2-0.2-0.4-0.4-0.6-0.5s-0.5-0.2-0.7-0.2s-0.4-0.1-0.7,0
				s-0.4,0-0.6,0.1c-0.5,0.1-1.1,0.3-1.6,0.6s-1,0.6-1.5,1.1c-0.3,0.3-0.6,0.6-0.8,0.9c-0.3,0.3-0.5,0.6-0.7,0.9s-0.4,0.6-0.5,0.8
				C62.9,241.5,62.8,241.7,62.7,241.9z M70.2,231.2l-1.7,1.7l-1.7-1.7l1.7-1.7L70.2,231.2z"/>
            <path class="st7" d="M73.4,242.8c0-0.3,0.1-0.5,0.3-0.7c0.2-0.2,0.4-0.3,0.7-0.3h2c0.9,0,1.8-0.1,2.7-0.3s1.8-0.4,2.7-0.7
				c0.9-0.3,1.7-0.6,2.6-1c0.8-0.4,1.6-0.7,2.4-1.1c-0.5-0.2-0.9-0.3-1.3-0.5s-0.9-0.4-1.3-0.6c-0.3-0.1-0.6-0.3-0.9-0.4
				c-0.3-0.1-0.6-0.3-0.9-0.4c-0.3-0.1-0.5-0.2-0.8-0.3s-0.5-0.1-0.7-0.1c-0.3,0-0.5,0.1-0.8,0.2c-0.3,0.1-0.5,0.3-0.7,0.5
				s-0.4,0.4-0.6,0.6s-0.3,0.4-0.4,0.6c-0.1,0.2-0.2,0.3-0.3,0.5C78,238.9,78,239,78,239l-1.8-0.8c0,0,0-0.1,0.1-0.2
				c0.1-0.1,0.1-0.2,0.2-0.4s0.2-0.4,0.4-0.6c0.1-0.2,0.3-0.4,0.5-0.6c0.5-0.6,1.1-1.1,1.7-1.4c0.6-0.3,1.2-0.5,1.9-0.5
				c0.3,0,0.7,0,1,0.1s0.7,0.2,1,0.3s0.7,0.3,1.1,0.4c0.4,0.2,0.7,0.3,1.1,0.5s0.8,0.4,1.2,0.6c0.4,0.2,0.8,0.3,1.2,0.5
				c0.4,0.1,0.8,0.3,1.2,0.4c0.4,0.1,0.8,0.1,1.3,0.1l0.4,1.9c-0.5,0.2-1,0.4-1.4,0.6s-1,0.5-1.5,0.7c-0.8,0.4-1.6,0.8-2.4,1.1
				c-0.9,0.4-1.8,0.7-2.7,1c-0.9,0.3-1.9,0.6-2.9,0.7c-1,0.2-2,0.3-3.1,0.3h-1.9h-0.1c-0.1,0-0.3,0-0.4-0.1s-0.2-0.1-0.3-0.2
				c-0.1-0.1-0.2-0.2-0.2-0.3C73.4,243.1,73.4,242.9,73.4,242.8z"/>
		</g>
	</g>
        <path class="st8" d="M111.5,247.5c0.5,0,1,0.4,1,1c0,0.5-0.4,1-1,1c-1.6,0-3.1-0.7-4.2-1.7c-1.1-1.1-1.7-2.6-1.7-4.2V231
		c0-1.6,0.7-3.1,1.7-4.2c1.1-1.1,2.6-1.7,4.2-1.7h20.6c1.6,0,3.1,0.7,4.2,1.7c1.1,1.1,1.7,2.6,1.7,4.2v12.6c0,1.6-0.7,3.1-1.7,4.2
		c-1.1,1.1-2.6,1.7-4.2,1.7c-0.5,0-1-0.4-1-1c0-0.5,0.4-1,1-1c1.1,0,2.1-0.5,2.9-1.2c0.7-0.7,1.2-1.7,1.2-2.9v-12.6
		c0-1.1-0.5-2.1-1.2-2.9c-0.7-0.7-1.7-1.2-2.9-1.2h-20.6c-1.1,0-2.1,0.5-2.9,1.2c-0.7,0.7-1.2,1.7-1.2,2.9v12.6
		c0,1.1,0.5,2.1,1.2,2.9C109.4,247.1,110.4,247.5,111.5,247.5L111.5,247.5z M121.8,229.4c1.3,0,2.5,0.5,3.4,1.4s1.4,2.1,1.4,3.4
		c0,1.3-0.5,2.5-1.4,3.4s-2.1,1.4-3.4,1.4s-2.5-0.5-3.4-1.4s-1.4-2.1-1.4-3.4c0-1.3,0.5-2.5,1.4-3.4S120.5,229.4,121.8,229.4z
		 M123.9,232.1c-0.5-0.5-1.2-0.8-2-0.8s-1.5,0.3-2,0.8s-0.8,1.2-0.8,2s0.3,1.5,0.8,2s1.2,0.8,2,0.8s1.5-0.3,2-0.8s0.8-1.2,0.8-2
		C124.7,233.4,124.4,232.7,123.9,232.1z M114.8,254.7v-6.1c0-1.9,0.8-3.7,2.1-5c1.3-1.3,3-2.1,5-2.1c1.9,0,3.7,0.8,5,2.1
		c1.3,1.3,2.1,3,2.1,5v6.1c0,0.5-0.4,1-1,1h-12.2C115.2,255.6,114.8,255.2,114.8,254.7L114.8,254.7z M116.7,248.6v5.1H127v-5.1
		c0-1.4-0.6-2.7-1.5-3.6s-2.2-1.5-3.6-1.5s-2.7,0.6-3.6,1.5C117.3,245.9,116.7,247.2,116.7,248.6L116.7,248.6z"/>
</g>
    <g id="remote">
	<path class="st3" d="M166.6,487c-19.8,0-39.6-0.1-59.4,0c-5,0-6.8-0.4-6.8-2.4c0.2-14.6,0.2-29.2,0-43.8c0-2,1.7-2.4,6.7-2.4
		c40.1,0.1,80.2,0.1,120.3,0c4.7,0,6.4,0.4,6.3,2.2c-0.2,14.7-0.2,29.4,0,44.1c0,1.8-1.5,2.3-6.3,2.2C207.3,487,187,487,166.6,487z"
    />
        <g>
		<g>
			<path class="st7" d="M123.6,467.5c-2.6,0-4.6-0.3-6.2-0.9c-1.5-0.6-2.5-1.4-3-2.5c-0.3-0.6-0.5-1.2-0.5-1.9s0.1-1.4,0.4-2.1
				c0.1-0.3,0.2-0.5,0.3-0.7s0.2-0.4,0.3-0.6c0.1-0.2,0.2-0.3,0.2-0.4s0.1-0.2,0.1-0.2l1.7,1.3c0,0.1-0.1,0.1-0.1,0.2
				s-0.1,0.1-0.1,0.2c-0.1,0.1-0.1,0.3-0.2,0.4c-0.1,0.2-0.2,0.3-0.2,0.5c-0.3,0.9-0.3,1.7,0,2.3c0.4,0.7,1.2,1.2,2.4,1.6
				c1.3,0.4,2.9,0.6,4.9,0.6c0.6,0,1.2,0,1.9-0.1c0.7,0,1.4-0.1,2.1-0.3c0.7-0.1,1.4-0.3,2.1-0.5s1.3-0.5,1.9-0.8
				c0-0.3-0.1-0.7-0.2-1s-0.2-0.7-0.4-1s-0.3-0.7-0.5-1s-0.3-0.6-0.5-0.8c-0.1-0.2-0.3-0.4-0.4-0.6c-0.1-0.1-0.1-0.2-0.2-0.2
				l1.8-1.2c0,0,0.1,0.1,0.1,0.2s0.2,0.3,0.3,0.5s0.3,0.5,0.4,0.8c0.2,0.3,0.3,0.6,0.5,0.9s0.3,0.7,0.4,1s0.2,0.7,0.3,1.1
				s0.1,0.7,0.2,1c0,0.3,0,0.5-0.1,0.8c-0.1,0.2-0.2,0.5-0.4,0.7s-0.4,0.4-0.8,0.6c-0.3,0.2-0.7,0.4-1.1,0.6
				c-0.4,0.2-0.9,0.3-1.4,0.5s-1,0.3-1.6,0.4s-1.1,0.2-1.6,0.3c-0.5,0.1-1.1,0.1-1.6,0.2C124.6,467.5,124.1,467.5,123.6,467.5z
				 M123.5,456.9l-1.7,1.7l-1.8-1.8l1.7-1.8L123.5,456.9z M127.9,456.9l-1.7,1.8l-1.8-1.8l1.7-1.7L127.9,456.9z"/>
            <path class="st7" d="M135.4,473c1.1-0.2,2.1-0.5,3-0.9s1.6-0.8,2.2-1.3s1.1-1,1.5-1.6s0.6-1.1,0.7-1.6c-0.3,0-0.7,0-1.1,0
				c-0.4,0-0.8,0-1.2-0.1c-1.6-0.1-2.7-0.6-3.4-1.5c-0.3-0.4-0.5-0.9-0.6-1.4s-0.1-1.1,0-1.7s0.2-1.1,0.5-1.7c0.2-0.5,0.5-1,0.8-1.4
				c0.4-0.5,0.8-0.8,1.2-1s0.9-0.3,1.3-0.3c1,0,2,0.5,2.8,1.4c0.3,0.3,0.6,0.7,0.8,1.1s0.5,0.9,0.6,1.4s0.3,1,0.4,1.5
				s0.2,1.1,0.2,1.6h0.8c0.2,0,0.3,0,0.4,0.1s0.2,0.1,0.3,0.2s0.2,0.2,0.2,0.3c0.1,0.1,0.1,0.3,0.1,0.4s0,0.3-0.1,0.4
				s-0.1,0.2-0.2,0.3s-0.2,0.2-0.3,0.2s-0.3,0.1-0.4,0.1h-1c-0.2,1.1-0.6,2-1.2,2.9c-0.6,0.9-1.2,1.6-2,2.2s-1.7,1.2-2.7,1.6
				s-2,0.7-3,0.9L135.4,473z M140.1,460.5c-0.2,0-0.4,0.1-0.6,0.2c-0.2,0.2-0.4,0.4-0.5,0.6s-0.3,0.5-0.4,0.8
				c-0.1,0.3-0.2,0.6-0.2,0.9s0,0.6,0,0.8c0,0.3,0.1,0.5,0.2,0.6c0.1,0.1,0.2,0.3,0.4,0.3c0.2,0.1,0.3,0.2,0.5,0.2
				c0.2,0.1,0.4,0.1,0.5,0.1c0.2,0,0.3,0,0.5,0c0.5,0,0.9,0,1.2,0s0.7,0,1,0c0-0.5-0.1-0.9-0.2-1.3c-0.1-0.4-0.2-0.8-0.3-1.1
				c-0.1-0.4-0.3-0.7-0.5-1s-0.3-0.5-0.5-0.7c-0.1-0.1-0.2-0.1-0.2-0.2c-0.1-0.1-0.2-0.2-0.3-0.2c-0.1-0.1-0.2-0.1-0.3-0.2
				S140.3,460.5,140.1,460.5z"/>
            <path class="st7" d="M144.7,466.5c0-0.2,0-0.3,0.1-0.4s0.1-0.2,0.2-0.3s0.2-0.2,0.3-0.2s0.3-0.1,0.4-0.1l0,0
				c0.5,0,0.9-0.1,1.3-0.3s0.7-0.4,1-0.8s0.5-0.7,0.8-1.1c0.2-0.4,0.4-0.8,0.7-1.2c0.2-0.4,0.4-0.8,0.6-1.2c0.2-0.4,0.4-0.7,0.6-1
				c0.3-0.4,0.7-0.7,1.1-0.9c0.4-0.2,0.8-0.3,1.3-0.3c0.6,0,1,0.1,1.5,0.3c0.4,0.2,0.8,0.5,1.2,1c0.3,0.3,0.5,0.6,0.7,1
				s0.4,0.7,0.5,1.1c0.2,0.4,0.3,0.7,0.4,1.1c0.1,0.4,0.3,0.7,0.5,1s0.4,0.5,0.6,0.8c0.2,0.2,0.5,0.4,0.8,0.4c0.1,0,0.2,0.1,0.3,0.1
				s0.2,0,0.3,0c0.3,0,0.6,0.1,0.8,0.3c0.2,0.2,0.3,0.5,0.3,0.8s-0.1,0.5-0.3,0.7s-0.5,0.3-0.8,0.3c-0.5,0-0.9-0.1-1.2-0.2
				c-0.4-0.1-0.7-0.3-1-0.5s-0.5-0.4-0.8-0.6s-0.4-0.4-0.6-0.7c-0.2,0.4-0.4,0.7-0.6,1c-0.3,0.3-0.6,0.5-1.1,0.7
				c-0.4,0.1-0.8,0.2-1.3,0.1s-1-0.2-1.5-0.4c-0.4-0.1-0.7-0.3-1.1-0.5c-0.4-0.2-0.7-0.4-1.1-0.7l0,0v0.1c-0.3,0.3-0.5,0.5-0.8,0.7
				s-0.5,0.4-0.8,0.5s-0.6,0.2-0.9,0.3c-0.3,0.1-0.7,0.1-1.1,0.1h-0.1c-0.3,0-0.5-0.1-0.7-0.3C144.8,467,144.7,466.7,144.7,466.5z
				 M150.8,464c0.3,0.2,0.6,0.4,0.8,0.6c0.3,0.2,0.5,0.3,0.8,0.4s0.5,0.2,0.7,0.2s0.4,0.1,0.6,0c0.2,0,0.4-0.1,0.5-0.3
				c0.2-0.2,0.3-0.3,0.4-0.6c0.1-0.2,0.2-0.5,0.2-0.8s0-0.6,0-0.9c0,0,0-0.1-0.1-0.3c0-0.1-0.1-0.3-0.2-0.4
				c-0.1-0.2-0.2-0.3-0.3-0.5s-0.2-0.3-0.4-0.4c-0.1-0.1-0.3-0.2-0.5-0.3s-0.4-0.1-0.6-0.1c-0.2,0-0.4,0.1-0.6,0.3
				c-0.2,0.2-0.3,0.4-0.5,0.7c-0.2,0.3-0.4,0.7-0.6,1.1c-0.1,0.2-0.2,0.4-0.3,0.6C151,463.6,150.9,463.8,150.8,464z"/>
            <path class="st7" d="M158.3,466.4c0-0.3,0.1-0.6,0.3-0.8s0.5-0.3,0.7-0.3h1.2c0.3,0,0.5,0,0.8,0s0.6,0,0.9,0s0.6-0.1,0.9-0.1
				s0.6-0.1,0.8-0.2s0.5-0.2,0.6-0.4c0.2-0.1,0.3-0.3,0.4-0.5c0.1-0.3,0.2-0.7,0.1-1.3c-0.1-0.6-0.2-1.2-0.4-2
				c-0.1-0.2-0.2-0.5-0.3-0.7c-0.1-0.3-0.2-0.5-0.3-0.7c-0.1-0.3-0.2-0.5-0.4-0.8l1.9-0.9c0,0,0,0.1,0.1,0.2s0.2,0.3,0.3,0.6
				c0.1,0.2,0.2,0.5,0.3,0.8s0.2,0.6,0.3,1c0.7,2.1,0.7,3.7,0.2,4.8c-0.5,1.2-1.4,1.9-2.7,2.3c-0.2,0.1-0.4,0.1-0.7,0.1
				s-0.6,0.1-0.9,0.1c-0.3,0-0.6,0-0.9,0c-0.3,0-0.5,0-0.7,0h-1.6h-0.1c-0.3,0-0.5-0.1-0.7-0.3S158.3,466.7,158.3,466.4z
				 M163.4,471.2l-1.7,1.7l-1.8-1.8l1.7-1.8L163.4,471.2z M167.8,471.2l-1.7,1.8l-1.8-1.8l1.7-1.7L167.8,471.2z"/>
            <path class="st7" d="M174.5,460.5c0.2,0.7,0.4,1.3,0.6,2c0.1,0.3,0.1,0.6,0.2,0.9c0.1,0.3,0.2,0.6,0.2,0.9
				c0.1,0.3,0.1,0.6,0.2,0.9c0,0.3,0.1,0.5,0.1,0.8c0,0.1,0,0.2,0,0.3c0,0.1,0,0.2,0,0.3c0,0.6-0.1,1.2-0.3,1.8s-0.4,1.2-0.8,1.7
				c-0.3,0.5-0.7,1.1-1.2,1.6c-0.4,0.5-0.9,1-1.5,1.4c-0.5,0.4-1.1,0.8-1.7,1.2c-0.6,0.4-1.2,0.7-1.8,1l-0.9-1.9
				c0.8-0.4,1.5-0.8,2.2-1.3s1.3-1,1.9-1.6s1-1.2,1.3-1.8c0.3-0.7,0.5-1.3,0.5-2c0,0,0-0.1,0-0.2s0-0.2,0-0.2l0,0
				c0-0.2-0.1-0.5-0.1-0.7c0-0.3-0.1-0.5-0.2-0.8c-0.1-0.3-0.1-0.6-0.2-0.8c-0.1-0.3-0.1-0.5-0.2-0.8c-0.2-0.6-0.4-1.2-0.5-1.8
				L174.5,460.5z"/>
		</g>
	</g>
        <path class="st9" d="M190.9,473.6H189c-0.3,0-0.6,0.3-0.6,0.6v3.2c0,1,0.8,1.7,1.7,1.7H216c1,0,1.7-0.8,1.7-1.7v-3.2
		c0-0.3-0.3-0.6-0.6-0.6h-1.9V458c0-1-0.8-1.7-1.7-1.7h-20.8c-1,0-1.7,0.8-1.7,1.7L190.9,473.6z M216.5,474.7v2.6
		c0,0.3-0.3,0.6-0.6,0.6H190c-0.3,0-0.6-0.3-0.6-0.6v-2.6H216.5z M214,473.6V458c0-0.3-0.3-0.6-0.6-0.6h-20.8
		c-0.3,0-0.6,0.3-0.6,0.6v15.6h5V472c0-1.6,0.6-3.1,1.8-4.3c0.6-0.6,1.3-1,2-1.3c-1-0.7-1.6-1.8-1.6-3.1c0-2.1,1.7-3.8,3.8-3.8
		s3.8,1.7,3.8,3.8c0,1.3-0.6,2.4-1.6,3.1c0.7,0.3,1.4,0.7,2,1.3c1.1,1.1,1.8,2.7,1.8,4.3v1.6H214z M207.9,473.6h-9.7V472
		c0-1.3,0.5-2.5,1.4-3.4s2.1-1.4,3.4-1.4l0,0c1.3,0,2.5,0.5,3.4,1.4s1.4,2.1,1.4,3.4L207.9,473.6z M203.1,460.7
		c1.5,0,2.7,1.2,2.7,2.7s-1.2,2.7-2.7,2.7s-2.7-1.2-2.7-2.7C200.4,461.9,201.6,460.7,203.1,460.7z"/>
        <path class="st9" d="M201.4,454.6c0.9-0.9,2.4-0.9,3.3,0c0.2,0.2,0.6,0.2,0.8,0s0.2-0.6,0-0.8c-1.4-1.4-3.6-1.4-4.9,0
		c-0.2,0.2-0.2,0.6,0,0.8C200.8,454.9,201.2,454.9,201.4,454.6L201.4,454.6z"/>
        <path class="st9" d="M199.1,452.3c2.2-2.2,5.7-2.2,7.8,0c0.2,0.2,0.6,0.2,0.8,0s0.2-0.6,0-0.8c-2.6-2.6-6.9-2.6-9.5,0
		c-0.2,0.2-0.2,0.6,0,0.8C198.5,452.6,198.9,452.6,199.1,452.3L199.1,452.3z"/>
        <path class="st9" d="M196.9,450.2c3.4-3.4,8.8-3.4,12.2,0c0.2,0.2,0.6,0.2,0.8,0s0.2-0.6,0-0.8c-3.8-3.8-10-3.8-13.8,0
		c-0.2,0.2-0.2,0.6,0,0.8C196.3,450.4,196.7,450.4,196.9,450.2L196.9,450.2z"/>
</g>
    <g id="whatsapp">
	<path class="st3" d="M524.8,441.4c-21.2,0-42.5-0.1-63.7,0c-5.3,0-7.3-0.4-7.3-2.5c0.3-15.7,0.3-31.4,0-47.2c0-2.1,1.8-2.6,7.2-2.6
		c43,0.1,86.1,0.1,129.1,0c5.1,0,6.8,0.4,6.8,2.4c-0.2,15.8-0.2,31.6,0,47.5c0,1.9-1.6,2.4-6.7,2.4
		C568.5,441.3,546.6,441.4,524.8,441.4z"/>
        <g>
		<g>
			<path class="st7" d="M477.3,421c-2.6,0-4.6-0.3-6.2-0.9c-1.5-0.6-2.5-1.4-3-2.5c-0.3-0.6-0.5-1.2-0.5-1.9s0.1-1.4,0.4-2.1
				c0.1-0.3,0.2-0.5,0.3-0.7s0.2-0.4,0.3-0.6c0.1-0.2,0.2-0.3,0.2-0.4s0.1-0.2,0.1-0.2l1.7,1.3c0,0.1-0.1,0.1-0.1,0.2
				s-0.1,0.1-0.1,0.2c-0.1,0.1-0.1,0.3-0.2,0.4s-0.2,0.3-0.2,0.5c-0.3,0.9-0.3,1.7,0,2.3c0.4,0.7,1.2,1.2,2.4,1.6
				c1.3,0.4,2.9,0.6,4.9,0.6c0.6,0,1.2,0,1.9-0.1c0.7,0,1.4-0.1,2.1-0.3c0.7-0.1,1.4-0.3,2.1-0.5s1.3-0.5,2-0.8c0-0.3-0.1-0.7-0.2-1
				s-0.2-0.7-0.4-1s-0.3-0.7-0.5-1s-0.3-0.6-0.5-0.8s-0.3-0.4-0.4-0.6s-0.1-0.2-0.2-0.2l1.8-1.2c0,0,0.1,0.1,0.1,0.2
				s0.2,0.3,0.3,0.5c0.1,0.2,0.3,0.5,0.4,0.8c0.2,0.3,0.3,0.6,0.5,0.9s0.3,0.7,0.4,1s0.2,0.7,0.3,1.1s0.1,0.7,0.2,1
				c0,0.3,0,0.5-0.1,0.8c-0.1,0.2-0.2,0.5-0.4,0.7c-0.2,0.2-0.4,0.4-0.8,0.6c-0.3,0.2-0.7,0.4-1.1,0.6s-0.9,0.3-1.4,0.5
				s-1,0.3-1.6,0.4s-1.1,0.2-1.6,0.3c-0.5,0.1-1.1,0.1-1.6,0.2C478.3,421,477.8,421,477.3,421z M475.2,422.6l1.7,1.8l-1.8,1.8
				l-1.7-1.8L475.2,422.6z M477.5,426l1.6,1.6l-1.6,1.6l-1.6-1.6L477.5,426z M479.9,422.6l1.7,1.7l-1.8,1.8l-1.7-1.7L479.9,422.6z"
            />
            <path class="st7" d="M495.1,421c-0.8,0-1.5-0.1-2-0.3c-0.6-0.2-1-0.5-1.4-0.9c-0.2-0.2-0.4-0.5-0.5-0.8s-0.2-0.5-0.3-0.8
				c-0.1-0.3-0.1-0.5-0.1-0.8c0-0.2,0-0.4,0-0.6v-0.2c0,0,0-0.1,0-0.4s0-0.6,0-1s0-0.9,0-1.5s0-1.2,0-1.8c0-0.6,0-1.3,0-1.9
				s0-1.3-0.1-1.9s-0.1-1.2-0.1-1.7s-0.1-1-0.2-1.3l2.1-0.4c0.1,0.4,0.1,0.8,0.2,1.3c0,0.5,0.1,1.1,0.1,1.7s0.1,1.3,0.1,2s0,1.3,0,2
				c0,0.6,0,1.2,0,1.8s0,1.1,0,1.5s0,0.8,0,1.1c0,0.3,0,0.5,0,0.5v0.2c0,0.3,0,0.6,0,0.8c0,0.2,0.1,0.4,0.3,0.6
				c0.3,0.3,0.9,0.5,1.8,0.5h0.1c0.1,0,0.3,0,0.4,0.1s0.2,0.1,0.3,0.2s0.2,0.2,0.2,0.3c0.1,0.1,0.1,0.3,0.1,0.4
				c0,0.3-0.1,0.6-0.3,0.8C495.6,420.9,495.4,421,495.1,421z"/>
            <path class="st7" d="M493.9,420c0-0.1,0-0.3,0.1-0.4s0.1-0.2,0.2-0.3s0.2-0.2,0.3-0.2s0.3-0.1,0.4-0.1h0.1c0.3,0,0.6-0.1,0.9-0.2
				s0.5-0.4,0.8-0.6s0.5-0.5,0.7-0.8s0.4-0.6,0.5-0.9c0.2-0.3,0.3-0.6,0.4-0.9s0.2-0.5,0.3-0.8s0.2-0.5,0.2-0.7
				c0.1-0.2,0.1-0.4,0.1-0.5c0-0.2,0.1-0.3,0.1-0.3l2.1,0.6c0,0,0,0,0,0.1s0,0.1,0,0.2c0,0.2-0.1,0.4-0.2,0.7
				c-0.1,0.3-0.1,0.7-0.2,1.1c-0.1,0.6-0.1,1.2-0.1,1.6c0,0.5,0.1,0.8,0.3,1.1c0.1,0.2,0.3,0.3,0.5,0.3c0.1,0,0.2,0,0.2,0
				c0.3,0,0.5-0.1,0.8-0.3c0.3-0.2,0.6-0.6,0.9-1.1s0.6-1.2,0.8-1.9c0.1-0.4,0.2-0.7,0.3-1c0.1-0.3,0.1-0.6,0.2-0.8
				c0-0.2,0.1-0.3,0.1-0.4s0-0.2,0-0.2l2.1,0.4c0,0,0,0.1,0,0.2s0,0.2-0.1,0.4c0,0.2-0.1,0.4-0.1,0.7c0,0.3,0,0.6-0.1,0.9
				c0,0.7,0,1.2,0.1,1.7s0.2,0.8,0.4,1.1c0.1,0.1,0.2,0.2,0.3,0.3s0.3,0.1,0.6,0.1c0.4,0,0.7-0.1,0.9-0.4c0.2-0.3,0.4-0.7,0.6-1.2
				c0.1-0.5,0.2-1.1,0.3-1.8c0-0.3,0-0.6,0-0.9s0-0.5,0-0.7s0-0.3,0-0.4s0-0.2,0-0.2l2.1-0.2c0,0,0,0.2,0,0.6c0,0.2,0,0.3,0.1,0.5
				c0,0.2,0.1,0.4,0.1,0.6s0.1,0.5,0.2,0.7s0.1,0.5,0.2,0.7c0.6,1.7,1.4,2.6,2.4,2.6h0.1h0.1c0.3,0,0.6,0.1,0.8,0.3s0.3,0.5,0.3,0.8
				s-0.1,0.5-0.3,0.7s-0.5,0.3-0.8,0.3h-0.1h-0.1c-0.6,0-1.1-0.1-1.6-0.4c-0.5-0.2-1-0.6-1.4-1.1c-0.2-0.2-0.4-0.5-0.6-0.8
				c-0.2,0.4-0.4,0.8-0.7,1.1c-0.3,0.4-0.7,0.6-1.1,0.8c-0.4,0.2-0.9,0.3-1.4,0.3s-1-0.1-1.5-0.3c-0.4-0.2-0.8-0.5-1.1-0.9
				c-0.1-0.1-0.2-0.3-0.3-0.4s-0.2-0.3-0.2-0.5c-0.4,0.6-0.8,1.1-1.3,1.4c-0.6,0.5-1.3,0.7-2,0.7c-0.1,0-0.2,0-0.3,0
				c-0.1,0-0.2,0-0.3,0c-0.8-0.2-1.5-0.6-1.9-1.3c-0.1-0.1-0.1-0.2-0.2-0.4c-0.1-0.1-0.1-0.3-0.2-0.4c-0.2,0.3-0.5,0.6-0.7,0.8
				c-0.9,0.9-1.9,1.3-2.9,1.3H495c-0.1,0-0.3,0-0.4-0.1s-0.2-0.1-0.3-0.2s-0.2-0.2-0.2-0.3S493.9,420.1,493.9,420z"/>
            <path class="st7" d="M513.5,420c0-0.3,0.1-0.6,0.3-0.8s0.5-0.3,0.7-0.3h1.2c0.3,0,0.5,0,0.8,0s0.6,0,0.9,0s0.6-0.1,0.9-0.1
				s0.6-0.1,0.8-0.2s0.5-0.2,0.6-0.4s0.3-0.3,0.4-0.5c0.1-0.3,0.2-0.7,0.1-1.3c-0.1-0.6-0.2-1.2-0.4-2c-0.1-0.2-0.2-0.5-0.3-0.7
				c-0.1-0.3-0.2-0.5-0.3-0.7c-0.1-0.3-0.2-0.5-0.4-0.8l1.9-0.9c0,0,0,0.1,0.1,0.2s0.2,0.3,0.3,0.6c0.1,0.2,0.2,0.5,0.3,0.8
				s0.2,0.6,0.3,1c0.7,2.1,0.7,3.7,0.2,4.8c-0.5,1.2-1.4,1.9-2.7,2.3c-0.2,0.1-0.4,0.1-0.7,0.1s-0.6,0.1-0.9,0.1s-0.6,0-0.9,0
				c-0.3,0-0.5,0-0.7,0h-1.6h-0.1c-0.3,0-0.5-0.1-0.7-0.3S513.5,420.3,513.5,420z M519,407.7l-1.7,1.7l-1.8-1.8l1.7-1.8L519,407.7z
				 M523.4,407.7l-1.7,1.8l-1.8-1.8l1.7-1.7L523.4,407.7z"/>
            <path class="st7" d="M525.7,421c0.1-1.6,0.2-3.2,0.2-4.6c0-1.5,0-2.8,0-4s-0.1-2.3-0.1-3.3c-0.1-1-0.1-1.8-0.2-2.5
				s-0.1-1.2-0.2-1.6c0-0.4-0.1-0.6-0.1-0.6l2.1-0.3c0,0,0.1,0.5,0.2,1.3c0,0.4,0.1,0.9,0.1,1.3c0,0.5,0.1,1,0.1,1.5
				s0.1,1.1,0.1,1.6s0,1,0.1,1.4c0,1.3,0.1,2.8,0,4.5c0,1.7-0.1,3.5-0.2,5.5L525.7,421z"/>
            <path class="st7" d="M530.2,426.5c1.1-0.2,2.1-0.5,3-0.9s1.6-0.8,2.2-1.3s1.1-1,1.5-1.6s0.6-1.1,0.7-1.6c-0.3,0-0.7,0-1.1,0
				c-0.4,0-0.8,0-1.2-0.1c-1.6-0.1-2.7-0.6-3.4-1.5c-0.3-0.4-0.5-0.9-0.6-1.4s-0.1-1.1,0-1.7s0.2-1.1,0.5-1.7c0.2-0.5,0.5-1,0.8-1.4
				c0.4-0.5,0.8-0.8,1.2-1s0.9-0.3,1.3-0.3c1,0,2,0.5,2.8,1.4c0.4,0.4,0.7,0.9,1,1.4s0.5,1.1,0.7,1.7s0.3,1.2,0.3,1.9s0.1,1.3,0,2
				c-0.1,0.8-0.3,1.5-0.5,2.2c-0.3,0.7-0.6,1.3-1,1.9s-0.9,1.1-1.5,1.6s-1.2,0.9-1.8,1.2c-0.6,0.4-1.3,0.7-2,0.9s-1.4,0.4-2.2,0.5
				L530.2,426.5z M534.9,414.1c-0.2,0-0.4,0.1-0.6,0.2s-0.4,0.4-0.5,0.6s-0.3,0.5-0.4,0.8s-0.2,0.6-0.2,0.9s0,0.6,0,0.8
				c0,0.3,0.1,0.5,0.2,0.6c0.1,0.1,0.2,0.3,0.4,0.3c0.2,0.1,0.3,0.2,0.5,0.2c0.2,0.1,0.4,0.1,0.5,0.1c0.2,0,0.3,0,0.5,0
				c0.5,0,0.9,0,1.2,0s0.7,0,1,0c0-0.5-0.1-0.9-0.2-1.3c-0.1-0.4-0.2-0.8-0.3-1.1c-0.1-0.4-0.3-0.7-0.5-1s-0.3-0.5-0.5-0.7
				c-0.1-0.1-0.2-0.1-0.2-0.2c-0.1-0.1-0.2-0.2-0.3-0.2c-0.1-0.1-0.2-0.1-0.3-0.2S535,414.1,534.9,414.1z"/>
		</g>
	</g>
        <path class="st8" d="M575.1,418.7l-2.7-2c-0.4-0.3-0.9-0.4-1.4-0.3s-0.9,0.3-1.3,0.8l-0.8,1.2l0,0c-0.1,0-0.8,0-2.4-1.3l-0.2-0.1
		c-1.7-1.1-1.9-1.8-1.9-1.9l0,0l0.8-1.2c0.6-0.9,0.4-2.1-0.4-2.7l-2.8-2c-0.9-0.6-2.1-0.4-2.7,0.4l-0.9,1.2c-0.8,1.1-1,2.6-0.6,4
		c0.7,2,2.4,4,5.1,6.2c0,0.1,0.1,0.1,0.2,0.1c0.1,0,0.1,0.1,0.2,0.1c0.1,0.1,0.1,0.1,0.2,0.1c0.1,0,0.1,0.1,0.2,0.1
		c2.9,1.9,5.4,2.9,7.4,2.9h0.1c1.4,0,2.7-0.7,3.5-1.8l0.9-1.2c0.3-0.4,0.4-0.9,0.3-1.4C575.8,419.4,575.6,419,575.1,418.7z
		 M574.1,420.3l-0.9,1.2c-0.5,0.7-1.3,1-2,1c-1.2,0-3.4-0.5-6.8-2.8c-3.2-2.5-4.4-4.4-4.8-5.6c-0.3-0.8-0.1-1.7,0.3-2.3l0.9-1.2h0.1
		l2.8,2v0.1l-0.8,1.1c-0.2,0.3-0.5,0.7-0.4,1.3c0.1,1.1,1,2.2,2.7,3.3l0.1,0.1c1.7,1.3,3,1.8,4,1.6c0.6-0.1,0.9-0.5,1.1-0.8l0.8-1.1
		h0.1l2.7,2C574.1,420.2,574.1,420.2,574.1,420.3z"/>
        <path class="st8" d="M566.9,401.3c-8.3,0-15.1,6.8-15.1,15.1c0,3.5,1.2,6.9,3.4,9.6l-2.6,5c-0.2,0.3-0.1,0.7,0.1,1
		c0.2,0.2,0.4,0.3,0.7,0.3c0.1,0,0.2,0,0.3,0l7-2.1c2,0.9,4,1.3,6.2,1.3c8.3,0,15.1-6.8,15.1-15.1S575.3,401.3,566.9,401.3z
		 M566.9,429.7c-2,0-3.9-0.4-5.7-1.3c-0.2-0.1-0.4-0.1-0.7-0.1l-5.2,1.6l1.9-3.6c0.2-0.3,0.1-0.8-0.1-1c-2.2-2.4-3.4-5.6-3.4-8.9
		c0-7.3,6-13.3,13.3-13.3s13.3,6,13.3,13.3S574.3,429.7,566.9,429.7z"/>
</g>
    <g id="telegram">
	<path class="st3" d="M404.2,557.2c-18.5,0-37.1-0.1-55.6,0c-4.6,0-6.4-0.4-6.4-2.4c0.2-14.6,0.2-29.2,0-43.8c0-2,1.6-2.4,6.3-2.4
		c37.5,0.1,75.1,0.1,112.6,0c4.4,0,6,0.4,5.9,2.2c-0.2,14.7-0.2,29.4,0,44.1c0,1.8-1.4,2.3-5.9,2.2
		C442.3,557.2,423.3,557.2,404.2,557.2z"/>
        <g>
		<g>
			<path class="st7" d="M355.6,546.2l-0.4-10c0,0,0-0.1,0-0.3s0-0.3,0.1-0.5s0.1-0.4,0.3-0.6c0.1-0.2,0.3-0.4,0.5-0.6
				c0.1-0.1,0.2-0.1,0.3-0.2c0.1-0.1,0.3-0.1,0.5-0.2s0.4,0,0.6,0s0.4,0,0.7,0.1c0.1-0.2,0.2-0.5,0.3-0.8c0.1-0.3,0.2-0.6,0.4-0.8
				c0.2-0.4,0.4-0.8,0.7-1.1c0.2-0.3,0.5-0.6,0.7-0.8c0.7-0.7,1.5-1.1,2.4-1c0.6,0,1.1,0.1,1.6,0.4s0.9,0.6,1.2,1
				c0.3,0.4,0.5,0.8,0.6,1.2c0.2,0.5,0.2,0.9,0.3,1.4c0,0.5,0,1,0,1.5s-0.2,0.9-0.4,1.3c-0.2,0.5-0.5,0.9-0.8,1.3
				c-0.3,0.3-0.7,0.5-1.1,0.6c-0.2,0-0.4,0-0.7,0c-0.2,0-0.5-0.1-0.8-0.2c-0.3-0.1-0.7-0.2-1.1-0.4s-0.9-0.3-1.4-0.5
				c-0.4-0.2-0.8-0.3-1.2-0.5s-0.8-0.3-1.1-0.4c-0.1,0-0.1,0-0.2-0.1s-0.1,0-0.1,0c0,0.1,0,0.2,0,0.3l0.4,10h-2.3V546.2z
				 M360.8,534.9c0.3,0.1,0.7,0.3,1,0.4s0.6,0.2,0.9,0.3s0.5,0.2,0.7,0.2s0.4,0.1,0.4,0.1c0.1-0.2,0.2-0.4,0.3-0.6s0.1-0.5,0.1-0.8
				s0-0.6,0-0.8c0-0.3-0.1-0.5-0.1-0.7c-0.1-0.4-0.2-0.7-0.4-0.9s-0.3-0.4-0.5-0.5s-0.3-0.2-0.4-0.2s-0.2,0-0.3,0
				c-0.2,0-0.5,0.2-0.8,0.5s-0.6,0.8-0.9,1.4c-0.1,0.2-0.2,0.5-0.3,0.7c-0.1,0.2-0.2,0.5-0.3,0.7L360.8,534.9z"/>
            <path class="st7" d="M369.6,538.4c0.1-1.6,0.2-3.2,0.2-4.6c0-1.5,0-2.8,0-4s-0.1-2.3-0.1-3.3c-0.1-1-0.1-1.8-0.2-2.5
				s-0.1-1.2-0.2-1.6c0-0.4-0.1-0.6-0.1-0.6l2.1-0.3c0,0,0.1,0.5,0.2,1.3c0,0.4,0.1,0.9,0.1,1.3c0,0.5,0.1,1,0.1,1.5
				s0.1,1.1,0.1,1.6s0,1,0.1,1.4c0,1.3,0.1,2.8,0,4.5c0,1.7-0.1,3.5-0.2,5.5L369.6,538.4z"/>
            <path class="st7" d="M379.9,537.6c0,0.6-0.1,1.2-0.3,1.8s-0.4,1.2-0.8,1.7c-0.3,0.5-0.7,1.1-1.2,1.6c-0.4,0.5-0.9,1-1.5,1.4
				c-0.5,0.4-1.1,0.8-1.7,1.2s-1.2,0.7-1.8,1l-0.9-1.9c0.5-0.3,1-0.6,1.5-0.9s1-0.7,1.4-1s0.9-0.8,1.2-1.2s0.7-0.8,1-1.3
				c0.3-0.4,0.5-0.9,0.6-1.4s0.2-1,0.1-1.5l0,0c0-0.4-0.1-0.8-0.2-1.3s-0.2-0.9-0.3-1.4c-0.1-0.5-0.2-0.9-0.4-1.3s-0.2-0.7-0.3-1
				l2-0.6c0.3,0.8,0.5,1.5,0.8,2.1s0.5,1.1,0.8,1.4c0.3,0.4,0.6,0.6,0.9,0.8s0.6,0.3,1,0.3h0.1c0.2,0,0.3,0,0.4,0.1s0.2,0.1,0.3,0.2
				s0.2,0.2,0.2,0.3s0.1,0.3,0.1,0.4c0,0.3-0.1,0.5-0.3,0.7c-0.2,0.2-0.5,0.3-0.8,0.3l0,0c-0.1,0-0.2,0-0.4,0s-0.3,0-0.5-0.1
				s-0.4-0.1-0.6-0.2C380.3,537.9,380.1,537.8,379.9,537.6L379.9,537.6z"/>
            <path class="st7" d="M380.9,537.3c0-0.1,0-0.3,0.1-0.4s0.1-0.2,0.2-0.3s0.2-0.2,0.3-0.2s0.3-0.1,0.4-0.1h0.1h3.5
				c0.3,0,0.6-0.1,0.9-0.2s0.6-0.3,0.8-0.5c0.2-0.2,0.4-0.4,0.6-0.7c0.2-0.2,0.2-0.5,0.3-0.8c0-0.4,0-0.8-0.2-1.3
				c-0.1-0.4-0.3-0.9-0.6-1.4c-0.3-0.5-0.6-0.9-0.9-1.4s-0.7-0.9-1.1-1.3s-0.8-0.8-1.1-1.1s-0.7-0.6-1.1-0.9l0.3-2.4l9.5-4.1l0.8,2
				l-8.5,3.6c0.5,0.4,1,0.9,1.4,1.3c0.4,0.4,0.8,0.9,1.1,1.3c0.3,0.4,0.6,0.9,0.9,1.3c0.3,0.4,0.5,0.9,0.8,1.3
				c0.2,0.4,0.5,0.9,0.7,1.3s0.5,0.9,0.8,1.4c0.2,0.3,0.4,0.7,0.7,0.9c0.2,0.3,0.5,0.5,0.8,0.7s0.6,0.3,0.9,0.5
				c0.3,0.1,0.7,0.2,1.1,0.2h0.5c0.3,0,0.6,0.1,0.8,0.3c0.2,0.2,0.3,0.5,0.3,0.7c0,0.3-0.1,0.6-0.3,0.8c-0.2,0.2-0.5,0.3-0.8,0.3
				h-0.1c-0.5,0-1,0-1.4-0.1s-0.8-0.2-1.1-0.3c-0.5-0.2-1-0.5-1.4-0.8c-0.4-0.4-0.8-0.7-1.1-1.2c-0.2,0.5-0.6,0.9-0.9,1.2
				c-0.2,0.2-0.5,0.4-0.7,0.5c-0.3,0.1-0.5,0.3-0.8,0.3c-0.3,0.1-0.6,0.2-0.9,0.2s-0.6,0.1-0.9,0.1h-3.5c-0.3,0-0.5-0.1-0.8-0.3
				S380.9,537.6,380.9,537.3z M392.2,519.2l-8.6,3.7l0.1-1.4l8.1-3.4L392.2,519.2z"/>
            <path class="st7" d="M393.5,537.3c0-0.3,0.1-0.5,0.3-0.7s0.5-0.3,0.7-0.3h0.1h0.9c0.2,0,0.4,0,0.5,0s0.3,0,0.4-0.1s0.2,0,0.3-0.1
				c0.1,0,0.1-0.1,0.2-0.1c0.1-0.1,0.2-0.2,0.3-0.3c0.1-0.1,0.1-0.3,0.2-0.4s0.1-0.3,0.1-0.5s0-0.4,0-0.6c0,0,0-0.2,0-0.4
				c0-0.3,0-0.6,0-1.1s0-1,0-1.6s0-1.2,0-1.9s0-1.3,0-2s0-1.3,0-2c0-0.6,0-1.2-0.1-1.7c0-0.5-0.1-1-0.1-1.3l2.1-0.3
				c0,0.4,0.1,0.8,0.1,1.4c0,0.5,0.1,1.1,0.1,1.7c0,0.6,0,1.3,0,2s0,1.4,0,2c0,0.7,0,1.3,0,1.9c0,0.6,0,1.2,0,1.6c0,0.5,0,0.9,0,1.2
				s0,0.5,0,0.6c0,0.2,0,0.4,0.1,0.6c0,0.2,0.1,0.5,0.3,0.7c0.1,0.2,0.3,0.4,0.6,0.5s0.6,0.2,1.1,0.2c0.2,0,0.3,0,0.4,0.1
				s0.2,0.1,0.3,0.2s0.2,0.2,0.2,0.3c0.1,0.1,0.1,0.3,0.1,0.4c0,0.3-0.1,0.6-0.3,0.8c-0.2,0.2-0.5,0.3-0.8,0.3c-0.4,0-0.7,0-1-0.1
				s-0.6-0.1-0.8-0.2c-0.2-0.1-0.5-0.2-0.7-0.4s-0.4-0.3-0.5-0.4c-0.1,0.1-0.1,0.1-0.2,0.2c-0.1,0.1-0.1,0.1-0.2,0.2
				c-0.2,0.2-0.4,0.3-0.6,0.4c-0.2,0.1-0.4,0.2-0.6,0.2s-0.4,0.1-0.6,0.1s-0.4,0-0.6,0h-1.2h-0.1c-0.3,0-0.5-0.1-0.7-0.3
				S393.5,537.6,393.5,537.3z"/>
            <path class="st7" d="M400.2,537.3c0-0.3,0.1-0.6,0.3-0.8s0.5-0.3,0.7-0.3h1.2c0.3,0,0.5,0,0.8,0s0.6,0,0.9,0s0.6-0.1,0.9-0.1
				s0.6-0.1,0.8-0.2s0.5-0.2,0.6-0.4s0.3-0.3,0.4-0.5c0.1-0.3,0.2-0.7,0.1-1.3s-0.2-1.2-0.4-2c-0.1-0.2-0.2-0.5-0.3-0.7
				c-0.1-0.3-0.2-0.5-0.3-0.7c-0.1-0.3-0.2-0.5-0.4-0.8l1.9-0.9c0,0,0,0.1,0.1,0.2c0.1,0.1,0.2,0.3,0.3,0.6c0.1,0.2,0.2,0.5,0.3,0.8
				c0.1,0.3,0.2,0.6,0.3,1c0.7,2.1,0.7,3.7,0.2,4.8c-0.5,1.2-1.4,1.9-2.7,2.3c-0.2,0.1-0.4,0.1-0.7,0.1s-0.6,0.1-0.9,0.1
				s-0.6,0-0.9,0s-0.5,0-0.7,0h-1.6H401c-0.3,0-0.5-0.1-0.7-0.3S400.2,537.6,400.2,537.3z M405.7,525l-1.7,1.7l-1.8-1.8l1.7-1.8
				L405.7,525z M410.2,525l-1.7,1.8l-1.8-1.8l1.7-1.7L410.2,525z"/>
		</g>
	</g>
        <path class="st9" d="M448.6,520c-5.3,2.8-19.9,10.8-25.2,13.6c-0.7,0.4-1.1,1.1-1.1,1.9c0,0.8,0.5,1.5,1.3,1.8l7.1,3v4.5
		c0,0.9,0.5,1.6,1.3,2c0.8,0.3,1.7,0.1,2.3-0.5l3-3.3l7.6,2.5c0.6,0.2,1.2,0.1,1.7-0.2s0.9-0.8,1-1.4l4-21.7
		c0.1-0.8-0.2-1.6-0.8-2.1C450.2,519.7,449.3,519.6,448.6,520L448.6,520z M449.3,523.6l-3.7,20l-8.3-2.7c-0.4-0.1-0.8,0-1.1,0.3
		l-3.5,3.8v-4.7L449.3,523.6z M424.4,535.5l7.1,3l14.8-14.8L424.4,535.5z"/>
</g>
    <g id="phone">
	<path class="st3" d="M277.2,97.7c-19.4,0-38.7-0.1-58.1,0c-4.8,0-6.7-0.4-6.6-2.6c0.2-15.8,0.2-31.6,0-47.4c0-2.1,1.7-2.6,6.6-2.6
		c39.2,0.1,78.5,0.1,117.7,0c4.6,0,6.2,0.4,6.2,2.4c-0.2,15.9-0.2,31.8,0,47.7c0,2-1.4,2.4-6.1,2.4C317,97.6,297.1,97.7,277.2,97.7z
		"/>
        <g>
		<g>
			<path class="st7" d="M249.6,77.3c-1,0-1.9-0.2-2.7-0.7c0,0.6,0,1.1-0.1,1.7s-0.2,1.2-0.4,1.8c-0.2,0.7-0.5,1.3-1,1.9
				c-0.4,0.6-1,1.1-1.6,1.5c-0.7,0.5-1.5,0.8-2.3,1.1c-0.9,0.2-1.8,0.4-2.9,0.5h-0.5c-1,0-1.9-0.1-2.7-0.4s-1.5-0.7-2.2-1.2
				c-0.6-0.5-1.1-1.1-1.4-1.8c-0.4-0.7-0.6-1.5-0.7-2.3c-0.1-0.5-0.1-0.9-0.1-1.4s0-0.9,0.1-1.3s0.1-0.8,0.2-1.2
				c0.1-0.4,0.2-0.7,0.3-1c0.2-0.8,0.5-1.4,0.8-2c0.3-0.5,0.5-0.9,0.7-1.2l1.8,1.3c-0.1,0.1-0.2,0.3-0.3,0.6
				c-0.1,0.3-0.3,0.6-0.4,0.9c-0.1,0.3-0.3,0.7-0.4,1.1c-0.1,0.4-0.2,0.8-0.3,1.3s-0.1,0.9-0.2,1.3c0,0.5,0,0.9,0.1,1.3
				c0,0.2,0.1,0.4,0.2,0.7c0.1,0.3,0.2,0.5,0.3,0.8s0.3,0.6,0.6,0.9s0.5,0.5,0.9,0.8s0.8,0.4,1.2,0.5c0.5,0.1,1,0.2,1.7,0.2h0.2h0.1
				h0.1c1.6-0.1,2.9-0.4,3.8-1c1-0.6,1.6-1.4,2-2.4c0.2-0.7,0.3-1.3,0.3-1.9s0-1.3-0.1-1.9s-0.2-1.1-0.4-1.6s-0.3-1-0.5-1.4
				c-0.1-0.1-0.2-0.3-0.2-0.5c-0.1-0.2-0.1-0.3-0.2-0.5c-0.1-0.1-0.1-0.2-0.2-0.3s-0.1-0.1-0.1-0.1l1.9-1.2c0,0,0.1,0.2,0.3,0.5
				c0.1,0.3,0.3,0.6,0.5,1.1c0.4,0.8,0.8,1.4,1.2,1.9s0.7,0.8,1,1s0.6,0.4,0.9,0.4c0.3,0.1,0.6,0.1,0.8,0.1c0.3,0,0.6,0.1,0.8,0.3
				c0.2,0.2,0.3,0.5,0.3,0.8s-0.1,0.6-0.3,0.8C250.2,77.2,250,77.3,249.6,77.3z M240.9,70.8l-1.8,1.8l-1.8-1.8l1.8-1.8L240.9,70.8z"
            />
            <path class="st7" d="M248.5,76.2c0-0.2,0-0.3,0.1-0.4s0.1-0.3,0.2-0.3c0.1-0.1,0.2-0.2,0.3-0.2c0.1-0.1,0.3-0.1,0.4-0.1
				c0.3,0,0.5,0,0.8,0s0.6,0,0.9,0c0.3,0,0.6,0,0.8-0.1c0.3,0,0.5,0,0.7-0.1c-1-0.9-1.5-1.8-1.5-2.9c0-0.7,0.1-1.4,0.3-2
				s0.5-1.2,0.9-1.7s0.9-0.9,1.4-1.2c0.5-0.3,1.1-0.4,1.6-0.4c0.7,0,1.3,0.2,1.8,0.5s0.9,0.7,1.3,1.1c0.3,0.5,0.6,1,0.7,1.5
				c0.2,0.6,0.2,1.1,0.2,1.7s-0.1,1.2-0.4,1.7c-0.2,0.6-0.5,1.1-0.9,1.5c0.2,0,0.5,0.1,0.7,0.1s0.5,0.1,0.8,0.1s0.6,0,0.9,0.1
				s0.6,0,0.8,0c0.3,0,0.6,0.1,0.8,0.3s0.3,0.5,0.3,0.8c0,0.2,0,0.3-0.1,0.4s-0.1,0.2-0.2,0.3c-0.1,0.1-0.2,0.2-0.4,0.2
				c-0.1,0.1-0.3,0.1-0.4,0.1h-0.1c-0.2,0-0.5,0-0.8,0s-0.5,0-0.8,0s-0.5,0-0.8-0.1c-0.3,0-0.5-0.1-0.7-0.1
				c-0.5-0.1-0.9-0.2-1.3-0.3c-0.4-0.1-0.8-0.2-1.2-0.3c-0.4,0.1-0.8,0.3-1.2,0.3c-0.5,0.1-1,0.2-1.5,0.2s-1.1,0.1-1.7,0.2
				c-0.6,0-1.2,0.1-1.7,0.1h-0.1c-0.3,0-0.6-0.1-0.8-0.3C248.6,76.7,248.5,76.5,248.5,76.2z M255.6,68.9c-0.2,0-0.4,0.1-0.7,0.2
				c-0.2,0.1-0.5,0.4-0.7,0.6c-0.2,0.3-0.4,0.6-0.5,1s-0.2,0.8-0.2,1.3c0,0.4,0.2,0.7,0.5,1s0.8,0.7,1.4,0.9l0.2,0.1
				c0.4-0.2,0.8-0.5,1-0.8s0.4-0.7,0.5-1.1s0.1-0.8,0-1.1c-0.1-0.4-0.2-0.7-0.3-1s-0.3-0.6-0.6-0.8S255.9,68.9,255.6,68.9z
				 M257.7,62.1l-1.8,1.8l-1.8-1.8l1.8-1.8L257.7,62.1z"/>
            <path class="st7" d="M260.5,76.2c0-0.3,0.1-0.6,0.3-0.8c0.2-0.2,0.5-0.3,0.8-0.3h0.1h1c0.2,0,0.4,0,0.6,0s0.3,0,0.4-0.1
				c0.1,0,0.2-0.1,0.3-0.1s0.1-0.1,0.2-0.1c0.1-0.1,0.2-0.2,0.3-0.3c0.1-0.1,0.1-0.3,0.2-0.5c0-0.2,0.1-0.4,0.1-0.5s0-0.4,0.1-0.6
				c0,0,0-0.2,0-0.5s0-0.7,0-1.2s0-1,0-1.7c0-0.6,0-1.3,0-2s0-1.4,0-2.1s0-1.4,0-2.1s0-1.3-0.1-1.8s-0.1-1-0.1-1.4l2.2-0.3
				c0.1,0.4,0.1,0.9,0.1,1.4c0,0.6,0.1,1.2,0.1,1.8c0,0.7,0,1.3,0,2.1c0,0.7,0,1.4,0,2.1s0,1.4,0,2s0,1.2,0,1.7s0,0.9,0,1.2
				c0,0.3,0,0.5,0,0.6c0,0.2,0,0.4,0.1,0.6c0,0.3,0.1,0.5,0.3,0.7c0.1,0.2,0.3,0.4,0.6,0.6c0.3,0.2,0.6,0.2,1.2,0.2
				c0.2,0,0.3,0,0.4,0.1s0.3,0.1,0.4,0.2s0.2,0.2,0.2,0.4c0.1,0.1,0.1,0.3,0.1,0.4c0,0.3-0.1,0.6-0.3,0.8s-0.5,0.3-0.8,0.3
				c-0.4,0-0.7,0-1-0.1s-0.6-0.1-0.9-0.3s-0.5-0.2-0.7-0.4c-0.2-0.1-0.4-0.3-0.5-0.5c-0.1,0.1-0.1,0.2-0.2,0.2
				c-0.1,0.1-0.1,0.1-0.2,0.2c-0.2,0.2-0.4,0.3-0.6,0.4s-0.4,0.2-0.7,0.2c-0.2,0.1-0.4,0.1-0.7,0.1s-0.4,0-0.6,0H262h-0.1
				c-0.3,0-0.6-0.1-0.8-0.3C260.6,76.7,260.5,76.5,260.5,76.2z"/>
            <path class="st7" d="M267.5,76.2c0-0.3,0.1-0.6,0.3-0.8s0.5-0.3,0.8-0.3h1.2c0.3,0,0.5,0,0.9,0s0.6,0,0.9-0.1
				c0.3,0,0.6-0.1,0.9-0.1s0.6-0.1,0.8-0.2c0.3-0.1,0.5-0.2,0.7-0.4c0.2-0.1,0.3-0.3,0.4-0.5c0.1-0.3,0.2-0.8,0.1-1.4
				s-0.2-1.3-0.5-2.1c-0.1-0.2-0.2-0.5-0.3-0.8c-0.1-0.3-0.2-0.5-0.3-0.8c-0.1-0.3-0.2-0.6-0.4-0.8l2-1c0,0,0,0.1,0.1,0.2
				s0.2,0.3,0.3,0.6c0.1,0.2,0.2,0.5,0.3,0.9c0.1,0.3,0.2,0.7,0.4,1c0.7,2.2,0.8,3.8,0.3,5s-1.5,2-2.8,2.4c-0.2,0.1-0.5,0.1-0.8,0.1
				s-0.6,0.1-1,0.1s-0.6,0-0.9,0s-0.5,0-0.7,0h-1.6h-0.1c-0.3,0-0.6-0.1-0.8-0.3S267.5,76.5,267.5,76.2z M273.3,63.3l-1.8,1.8
				l-1.8-1.8l1.8-1.8L273.3,63.3z M277.9,63.3l-1.8,1.8l-1.8-1.8l1.8-1.8L277.9,63.3z"/>
		</g>
	</g>
        <g>
		<path class="st8" d="M320.5,85.9c-0.6-0.1-1.2-0.2-1.7-0.3c-2.2-0.5-4.2-1.4-6.1-2.5c-3-1.7-5.7-3.8-8.1-6.3
			c-2.8-3.1-5.2-6.5-6.7-10.5c-0.6-1.4-0.9-2.9-1-4.5c-0.1-1.5,0.4-3,1.5-4.1c0.9-0.9,1.8-1.9,2.7-2.7c1.5-1.3,3.1-1.3,4.5,0.1
			c1.5,1.4,3,2.9,4.4,4.4c1.1,1.2,1.1,2.9,0,4.1c-0.7,0.8-1.6,1.6-2.4,2.4c-0.1,0.1-0.1,0.1-0.3,0.2c2.1,3.8,5.2,6.9,9.1,9l1.9-1.9
			c0.5-0.5,1-1,1.7-1.3c1-0.5,2.3-0.2,3.1,0.6c1.6,1.5,3.1,3,4.6,4.6c1.1,1.1,1.1,2.9,0.1,4c-0.9,1.1-2,2.2-3.1,3.2
			c-0.8,0.7-1.7,1.1-2.7,1.2c-0.1,0-0.1,0-0.2,0.1L320.5,85.9z M321,84c1.1,0.1,2.1-0.3,2.8-1.1c0.7-0.7,1.4-1.5,2.2-2.2
			c0.1-0.1,0.2-0.2,0.3-0.3c0.5-0.5,0.5-1.3,0-1.8l0,0c-0.6-0.6-1.2-1.2-1.8-1.8c-0.8-0.8-1.6-1.6-2.4-2.3c-0.5-0.5-1.3-0.6-1.8-0.1
			c0,0,0,0-0.1,0.1s-0.2,0.2-0.3,0.3c-0.8,0.8-1.5,1.5-2.3,2.3c-0.5,0.5-1.2,0.6-1.8,0.3c-0.5-0.2-0.9-0.5-1.4-0.7
			c-2-1.2-3.7-2.7-5.3-4.4c-1.4-1.5-2.6-3.1-3.5-5c-0.4-1-0.4-1.5,0.4-2.2c0.8-0.8,1.6-1.6,2.4-2.4c0.5-0.4,0.5-1.2,0.1-1.7
			c0,0,0,0-0.1-0.1s-0.2-0.2-0.3-0.3l-3.7-3.7c-0.8-0.8-1.5-0.8-2.3,0s-1.5,1.5-2.3,2.3c-0.4,0.4-0.6,0.8-0.8,1.3
			c-0.3,1-0.3,2.1,0,3.1c0.4,1.6,0.9,3.1,1.7,4.6c1.3,2.5,2.9,4.9,4.8,7c3.3,3.8,7.5,6.6,12.2,8.4C318.7,83.7,319.8,83.9,321,84
			L321,84z"/>
	</g>
</g>
    <g id="ticket">
	<path class="st3" d="M460.6,196.8c-19.5,0-38.9-0.1-58.4,0c-4.9,0-6.7-0.4-6.7-2.5c0.2-15.7,0.2-31.4,0-47.1c0-2.1,1.7-2.6,6.6-2.6
		c39.5,0.1,78.9,0.1,118.4,0c4.6,0,6.3,0.4,6.2,2.4c-0.2,15.8-0.2,31.6,0,47.5c0,1.9-1.4,2.4-6.2,2.4
		C500.6,196.7,480.6,196.8,460.6,196.8z"/>
        <g>
		<g>
			<path class="st7" d="M431.8,174.5c-0.3-0.3-0.5-0.7-0.7-1.2c-1.9,2-4.9,3-8.9,3c-2.2,0-4-0.3-5.4-0.8s-2.5-1.3-3.1-2.4
				c-0.2-0.4-0.4-0.7-0.5-1.1c-0.1-0.4-0.2-0.7-0.2-1.1c0-0.4,0-0.7,0-1.1c0-0.4,0.1-0.7,0.2-1s0.2-0.6,0.3-0.9
				c0.1-0.3,0.2-0.5,0.3-0.7c0.1-0.2,0.1-0.4,0.2-0.5s0.1-0.2,0.1-0.2l1.9,1c0,0,0,0.1-0.1,0.2c-0.1,0.1-0.1,0.3-0.2,0.5
				s-0.2,0.5-0.2,0.8c-0.1,0.3-0.1,0.6-0.1,0.9c0,0.3,0,0.7,0.1,1s0.2,0.7,0.4,1c0.4,0.7,1.2,1.3,2.3,1.6c1.1,0.4,2.5,0.6,4.3,0.6
				c1.6,0,2.9-0.1,4-0.4c1.1-0.3,2-0.7,2.8-1.3c0.3-0.3,0.6-0.5,0.9-0.8c0.2-0.3,0.4-0.6,0.6-1c0.2-0.3,0.3-0.7,0.4-1s0.2-0.7,0.3-1
				l2,0.6c0,0.1-0.1,0.3-0.1,0.5s-0.1,0.4-0.1,0.6c-0.1,0.4-0.1,0.8-0.1,1.1s0.1,0.6,0.1,1c0.1,0.3,0.2,0.6,0.5,0.9
				c0.5,0.6,1.4,1,2.6,1c0.3,0,0.6,0.1,0.8,0.3s0.3,0.5,0.3,0.8s-0.1,0.6-0.3,0.8c-0.2,0.2-0.5,0.3-0.8,0.3h-0.1
				C434.1,176.2,432.7,175.6,431.8,174.5z M422.6,165.7l-1.7,1.7l-1.8-1.8l1.7-1.8L422.6,165.7z M427,165.7l-1.7,1.8l-1.8-1.8
				l1.7-1.7L427,165.7z"/>
            <path class="st7" d="M435.2,175.2c0-0.1,0-0.3,0.1-0.4s0.1-0.2,0.2-0.3s0.2-0.2,0.3-0.2s0.3-0.1,0.4-0.1h0.1h3.5
				c0.3,0,0.6-0.1,0.9-0.2s0.6-0.3,0.8-0.5c0.2-0.2,0.4-0.4,0.6-0.7c0.2-0.2,0.2-0.5,0.3-0.8c0-0.4,0-0.8-0.2-1.3
				c-0.1-0.4-0.3-0.9-0.6-1.4c-0.3-0.5-0.6-0.9-0.9-1.4s-0.7-0.9-1.1-1.3s-0.8-0.8-1.1-1.1s-0.7-0.6-1.1-0.9l0.3-2.4l9.5-4.1l0.8,2
				l-8.5,3.6c0.5,0.4,1,0.9,1.4,1.3c0.4,0.4,0.8,0.9,1.1,1.3c0.3,0.4,0.6,0.9,0.9,1.3c0.3,0.4,0.5,0.9,0.8,1.3
				c0.2,0.4,0.5,0.9,0.7,1.3s0.5,0.9,0.8,1.4c0.2,0.3,0.4,0.7,0.7,0.9c0.2,0.3,0.5,0.5,0.8,0.7s0.6,0.3,0.9,0.5s0.7,0.2,1.1,0.2h0.5
				c0.3,0,0.6,0.1,0.8,0.3c0.2,0.2,0.3,0.5,0.3,0.7c0,0.3-0.1,0.6-0.3,0.8c-0.2,0.2-0.5,0.3-0.8,0.3H449c-0.5,0-1,0-1.4-0.1
				s-0.8-0.2-1.1-0.3c-0.5-0.2-1-0.5-1.4-0.8c-0.4-0.4-0.8-0.7-1.1-1.2c-0.2,0.5-0.6,0.9-0.9,1.2c-0.2,0.2-0.5,0.4-0.7,0.5
				c-0.3,0.1-0.5,0.3-0.8,0.3c-0.3,0.1-0.6,0.2-0.9,0.2s-0.6,0.1-0.9,0.1h-3.5c-0.3,0-0.5-0.1-0.8-0.3
				C435.3,175.7,435.2,175.5,435.2,175.2z"/>
            <path class="st7" d="M448.1,175.2c0-0.3,0.1-0.6,0.3-0.8s0.5-0.3,0.8-0.3h0.8c0.6,0,1.2,0,1.7-0.1s1-0.2,1.5-0.4s0.8-0.5,1-0.8
				s0.4-0.8,0.3-1.3c0-0.4,0-0.8-0.1-1.2s-0.2-0.9-0.3-1.5l2-0.6c0.1,0.3,0.1,0.5,0.2,0.8s0.1,0.6,0.2,0.8c0,0.3,0.1,0.6,0.1,0.9
				s0.1,0.6,0.1,0.9c0,0.3,0,0.5,0.1,0.8s0.1,0.6,0.3,0.8c0.1,0.3,0.3,0.5,0.5,0.6c0.2,0.2,0.5,0.2,0.9,0.2c0.3,0,0.6,0.1,0.8,0.3
				c0.2,0.2,0.3,0.5,0.3,0.8c0,0.2,0,0.3-0.1,0.4c-0.1,0.1-0.1,0.2-0.2,0.3s-0.2,0.2-0.3,0.2s-0.3,0.1-0.4,0.1
				c-0.7,0-1.3-0.1-1.8-0.4c-0.5-0.3-0.9-0.6-1.2-1c-0.3,0.3-0.6,0.5-1,0.6s-0.9,0.3-1.3,0.4c-0.5,0.1-1,0.2-1.5,0.2
				c-0.5,0.1-1.1,0.1-1.6,0.1h-0.8c-0.3,0-0.6-0.1-0.8-0.3C448.2,175.7,448.1,175.5,448.1,175.2z M452.5,180.3l-1.7,1.7l-1.8-1.8
				l1.7-1.8L452.5,180.3z M456.9,180.3l-1.7,1.8l-1.8-1.8l1.7-1.7L456.9,180.3z"/>
            <path class="st7" d="M457,175.2c0-0.3,0.1-0.6,0.3-0.8s0.5-0.3,0.7-0.3h1.2c0.3,0,0.5,0,0.8,0s0.6,0,0.9,0s0.6-0.1,0.9-0.1
				s0.6-0.1,0.8-0.2s0.5-0.2,0.6-0.4c0.2-0.1,0.3-0.3,0.4-0.5c0.1-0.3,0.2-0.7,0.1-1.3s-0.2-1.2-0.4-2c-0.1-0.2-0.2-0.5-0.3-0.7
				c-0.1-0.3-0.2-0.5-0.3-0.7c-0.1-0.3-0.2-0.5-0.4-0.8l1.9-0.9c0,0,0,0.1,0.1,0.2c0.1,0.1,0.2,0.3,0.3,0.6c0.1,0.2,0.2,0.5,0.3,0.8
				c0.1,0.3,0.2,0.6,0.3,1c0.7,2.1,0.7,3.7,0.2,4.8c-0.5,1.2-1.4,1.9-2.7,2.3c-0.2,0.1-0.4,0.1-0.7,0.1s-0.6,0.1-0.9,0.1
				s-0.6,0-0.9,0s-0.5,0-0.7,0h-1.6h0.1c-0.3,0-0.5-0.1-0.7-0.3C457.1,175.7,457,175.5,457,175.2z M462.5,162.8l-1.7,1.7l-1.8-1.8
				l1.7-1.8L462.5,162.8z M466.9,162.9l-1.7,1.8l-1.8-1.8l1.7-1.7L466.9,162.9z"/>
		</g>
	</g>
        <path class="st8" d="M511.5,178.9H510V160c0-1.2-1-2.2-2.2-2.2h-6.4v-2.4c0-0.3-0.3-0.6-0.6-0.6h-14.4c-0.3,0-0.6,0.3-0.6,0.6v2.4
		h-6.4c-1.2,0-2.2,1-2.2,2.2v18.9h-1.6c-0.3,0-0.6,0.3-0.6,0.6c0,2.6,2.1,4.7,4.7,4.7h27.6c2.6,0,4.7-2.1,4.7-4.7
		C512.1,179.2,511.8,178.9,511.5,178.9z M501.3,161.7h4.6v14.6h-4.6V161.7z M486.9,156h13.2v20.2h-13.2V156z M481.2,176.2v-14.6h4.6
		v14.6H481.2z M478.3,160.1c0-0.6,0.5-1.1,1.1-1.1h6.4v1.6h-5.1c-0.3,0-0.6,0.3-0.6,0.6v15.7c0,0.3,0.3,0.6,0.6,0.6h25.7
		c0.3,0,0.6-0.3,0.6-0.6v-15.7c0-0.3-0.3-0.6-0.6-0.6h-5.1V159h6.4c0.6,0,1.1,0.5,1.1,1.1V179h-30.6v-18.9H478.3z M507.4,183.1
		h-27.6c-1.8,0-3.3-1.3-3.5-3h1.5l0,0l0,0h31.7l0,0l0,0h1.5C510.6,181.8,509.2,183.1,507.4,183.1z"/>
        <path class="st8" d="M488.4,161.2h2.7c0.3,0,0.6-0.3,0.6-0.6V158c0-0.3-0.3-0.6-0.6-0.6h-2.7c-0.3,0-0.6,0.3-0.6,0.6v2.7
		C487.9,161,488.1,161.2,488.4,161.2z M489,158.6h1.5v1.5H489V158.6z"/>
        <path class="st8" d="M488.4,167.3h2.7c0.3,0,0.6-0.3,0.6-0.6V164c0-0.3-0.3-0.6-0.6-0.6h-2.7c-0.3,0-0.6,0.3-0.6,0.6v2.7
		C487.9,167,488.1,167.3,488.4,167.3z M489,164.6h1.5v1.5H489C489,166.2,489,164.6,489,164.6z"/>
        <path class="st8" d="M488.4,173.3h2.7c0.3,0,0.6-0.3,0.6-0.6V170c0-0.3-0.3-0.6-0.6-0.6h-2.7c-0.3,0-0.6,0.3-0.6,0.6v2.7
		C487.9,173.1,488.1,173.3,488.4,173.3z M489,170.7h1.5v1.5H489V170.7z"/>
        <path class="st8" d="M492.6,159.9h5.7c0.3,0,0.6-0.3,0.6-0.6s-0.3-0.6-0.6-0.6h-5.7c-0.3,0-0.6,0.3-0.6,0.6
		S492.3,159.9,492.6,159.9z"/>
        <path class="st8" d="M492.6,165.9h5.7c0.3,0,0.6-0.3,0.6-0.6s-0.3-0.6-0.6-0.6h-5.7c-0.3,0-0.6,0.3-0.6,0.6
		S492.3,165.9,492.6,165.9z"/>
        <path class="st8"
              d="M492.6,172h5.7c0.3,0,0.6-0.3,0.6-0.6s-0.3-0.6-0.6-0.6h-5.7c-0.3,0-0.6,0.3-0.6,0.6S492.3,172,492.6,172z"/>
</g>
</svg>
